<?xml version="1.0" standalone="no"?>
<!DOCTYPE svg PUBLIC "-//W3C//DTD SVG 20010904//EN" "http://www.w3.org/TR/2001/REC-SVG-20010904/DTD/svg10.dtd">
<svg
  version="1.0"
  xmlns="http://www.w3.org/2000/svg"
  width="444.000000pt"
  height="411.000000pt"
  viewBox="0 0 444.000000 411.000000"
  preserveAspectRatio="xMidYMid meet"
>
  <g
    transform="translate(0.000000,411.000000) scale(0.100000,-0.100000)"
    fill="#FFFFFF"
    stroke="none"
  >
    <path
      d="M2932 4000 c2 -60 9 -105 16 -112 21 -21 13 -28 -28 -28 l-40 0 0
-349 c0 -219 4 -352 10 -356 6 -4 11 115 12 337 l3 343 28 3 27 3 1 -348 c0
-204 4 -340 9 -328 5 11 9 183 9 383 1 329 -1 362 -15 362 -15 0 -16 12 -12
95 4 79 3 95 -10 95 -12 0 -14 -17 -10 -100z"
    />
    <path
      d="M1030 3835 c0 -22 4 -26 23 -23 14 2 22 10 22 23 0 13 -8 21 -22 23
-19 3 -23 -1 -23 -23z"
    />
    <path
      d="M1986 3848 c-3 -7 -7 -36 -10 -63 -3 -28 -18 -82 -32 -120 -14 -39
-32 -90 -41 -115 -48 -138 -180 -424 -266 -573 -66 -115 -159 -277 -195 -340
-47 -81 -189 -287 -261 -377 -41 -52 -121 -141 -178 -196 -57 -56 -103 -105
-103 -108 0 -10 84 51 111 80 12 13 26 24 31 24 4 0 8 -43 8 -96 0 -64 3 -93
10 -89 7 4 10 47 9 110 l-1 103 56 66 56 66 0 -125 c0 -82 4 -124 10 -120 6 4
10 62 10 141 0 107 3 139 15 150 13 14 15 12 15 -20 0 -19 5 -38 12 -42 8 -5
10 7 5 44 -5 42 -2 55 14 76 11 15 24 24 28 22 4 -3 7 3 8 13 1 16 74 133 80
128 1 -2 3 -37 4 -80 3 -116 19 -93 19 27 0 59 4 108 10 111 12 7 11 16 20
-175 l6 -155 2 183 2 183 43 79 c23 44 45 80 50 80 4 0 7 -91 7 -202 0 -126 4
-198 9 -189 5 8 10 102 11 208 0 107 3 208 7 226 5 31 93 197 103 197 3 0 5
-114 5 -253 l0 -253 -53 -72 c-30 -40 -57 -72 -61 -72 -4 0 -12 -10 -18 -22
-16 -36 -164 -207 -229 -267 -72 -65 -222 -178 -286 -214 l-47 -27 -58 57
c-92 91 -152 177 -229 329 -84 165 -114 242 -114 289 0 28 -4 35 -19 35 -13 0
-21 -8 -23 -22 -3 -20 -9 -23 -45 -24 -35 0 -43 3 -43 18 0 24 -16 23 -23 -2
-4 -15 -14 -20 -36 -20 -26 0 -31 4 -31 25 0 20 -5 25 -25 25 -22 0 -25 -4
-25 -33 0 -17 -11 -75 -24 -127 -51 -200 -97 -328 -151 -428 -92 -165 -116
-212 -111 -212 8 0 70 100 108 172 l33 63 6 -70 c13 -142 10 -229 -8 -255 -48
-69 -48 -69 -54 37 l-5 98 -2 -108 -2 -109 -35 -31 c-44 -39 -46 -58 -2 -21
l32 27 5 -159 c3 -102 8 -153 14 -141 5 10 6 86 4 169 l-5 151 28 31 28 31 1
-187 c0 -119 4 -188 10 -188 6 0 10 75 10 204 0 191 1 205 21 230 11 14 36 52
55 83 l34 57 0 -273 0 -273 23 6 c12 3 25 6 30 6 4 0 7 61 7 135 l0 135 25 0
c25 0 25 -1 26 -82 1 -46 1 -87 0 -91 -1 -5 3 -6 8 -3 5 3 6 44 3 91 l-5 85
62 0 61 0 0 -159 0 -159 -42 -7 c-24 -4 -74 -15 -113 -26 -38 -11 -137 -37
-219 -59 -81 -21 -150 -41 -153 -44 -3 -2 5 -9 16 -16 12 -6 21 -18 21 -26 0
-8 -4 -13 -9 -10 -5 3 -11 -1 -15 -9 -4 -13 2 -14 37 -10 23 4 60 10 82 15 71
17 194 40 210 40 22 0 76 -62 71 -82 -2 -11 1 -15 10 -11 17 6 46 -15 38 -28
-3 -5 -19 -9 -35 -9 -21 0 -28 4 -23 12 5 8 2 9 -9 5 -10 -4 -24 -10 -32 -13
-12 -5 -15 4 -15 45 0 52 -9 61 -40 41 -12 -8 -15 -40 -15 -190 0 -162 -2
-182 -17 -191 -13 -7 -18 -22 -18 -49 l0 -40 64 0 c58 0 64 2 70 23 10 37 7
47 -13 47 -25 0 -34 14 -26 40 6 18 15 20 80 20 75 0 87 -6 77 -43 -2 -9 -8
-17 -13 -17 -5 0 -9 -16 -9 -35 l0 -35 66 0 66 0 -7 36 c-3 20 -13 43 -21 51
-12 12 -14 56 -12 250 l3 236 190 38 c105 20 264 51 355 69 91 17 206 40 255
50 50 10 140 28 200 39 61 11 170 32 244 46 73 14 147 25 163 25 16 0 39 5 50
11 11 6 75 19 142 30 67 10 136 21 154 25 31 6 32 6 32 -29 0 -25 -5 -37 -17
-41 -10 -3 -96 -8 -190 -10 -95 -2 -177 -7 -183 -11 -6 -4 -10 -96 -10 -256 0
-213 -2 -250 -15 -255 -8 -4 -15 -17 -15 -30 0 -17 -6 -24 -20 -24 -17 0 -20
-7 -20 -39 0 -22 -3 -46 -6 -55 -6 -14 29 -16 352 -15 198 1 346 4 329 6 -37
6 -45 17 -45 66 0 30 -4 37 -20 37 -11 0 -23 8 -26 18 -3 9 -10 26 -15 37 -5
11 -8 149 -7 319 l3 300 50 11 c53 13 86 19 335 60 159 26 231 39 310 55 96
20 680 94 687 87 2 -2 4 -83 5 -179 2 -154 0 -178 -15 -192 -17 -17 -24 -65
-9 -68 4 0 82 -2 175 -3 l167 -1 0 33 c0 23 -6 36 -17 40 -10 4 -21 11 -25 17
-12 17 -10 374 2 381 6 4 69 9 140 12 l130 6 0 29 0 28 -140 0 -140 0 0 375
c0 211 4 375 9 375 5 0 11 -12 14 -27 7 -44 91 -327 98 -333 4 -3 23 -38 44
-79 36 -72 105 -174 113 -167 2 2 -18 39 -44 82 -87 144 -129 254 -205 539 -6
22 -15 50 -20 63 -5 13 -9 32 -9 42 0 28 -29 25 -40 -5 -9 -23 -13 -24 -90
-24 -72 0 -80 2 -80 20 0 13 -7 19 -24 19 -22 0 -24 -4 -30 -97 -13 -174 -75
-384 -155 -530 -96 -173 -119 -184 -216 -105 -172 137 -446 541 -688 1011 -95
184 -159 324 -208 456 -17 44 -44 116 -61 160 -16 44 -38 102 -49 129 -10 27
-19 70 -19 95 0 54 -13 71 -52 71 -29 0 -32 -3 -42 -52 l-6 -28 -155 0 -154 0
-3 38 c-3 34 -6 37 -36 40 -20 2 -34 -2 -36 -10z m-38 -937 c-18 -31 -39 -68
-46 -82 -8 -14 -24 -38 -36 -53 l-22 -28 3 298 4 299 50 130 c28 72 56 144 62
160 10 24 13 -37 15 -319 l2 -349 -32 -56z m577 618 c26 -72 56 -152 68 -178
17 -38 21 -70 23 -181 1 -74 0 -180 -3 -234 -7 -114 -11 -113 -65 4 -78 169
-78 168 -78 457 0 145 2 263 4 263 2 0 25 -59 51 -131z m-400 89 l15 -33 -6
33 -6 32 86 0 c70 0 86 -3 86 -15 0 -9 -19 -55 -41 -102 l-41 -88 -26 50 c-18
35 -27 45 -30 32 -2 -10 8 -37 22 -61 l26 -44 -24 -53 c-21 -47 -23 -50 -29
-28 -4 13 -7 58 -8 99 l-2 75 -8 -90 c-4 -49 -5 -100 -2 -112 5 -21 2 -23 -36
-23 l-41 0 0 180 0 180 25 0 c18 0 29 -8 40 -32z m265 -142 c0 -90 -3 -171 -6
-180 -8 -20 -38 -21 -58 0 -12 11 -16 38 -17 97 l-2 82 -9 -63 c-11 -68 -23
-71 -48 -11 -12 27 -9 38 36 134 45 95 51 105 77 105 l27 0 0 -164z m-108
-166 c3 -24 0 -25 -49 -28 -29 -2 -53 0 -53 4 0 4 10 29 22 56 l22 49 28 -28
c15 -15 29 -39 30 -53z m-459 -324 l3 -277 -62 -100 -62 -100 -8 67 c-3 37 -5
153 -2 258 l5 191 58 122 c33 68 60 121 62 120 1 -2 4 -128 6 -281z m872 130
l55 -115 -1 -153 c0 -84 -4 -173 -7 -197 l-7 -44 -21 39 c-12 22 -34 61 -50
88 -28 50 -28 50 -32 273 -3 123 -2 223 2 223 3 0 31 -52 61 -114z m-557 -133
l-3 -168 -35 0 -35 0 -3 115 c-2 77 1 123 10 140 21 42 49 80 59 80 6 0 8 -66
7 -167z m152 -3 l0 -170 -30 0 -30 0 0 122 c0 67 -3 118 -7 114 -4 -4 -6 -37
-5 -73 2 -36 0 -88 -3 -115 -6 -42 -10 -48 -31 -48 l-24 0 0 170 0 170 65 0
65 0 0 -170z m94 93 c3 -42 6 -118 6 -170 l0 -93 -40 0 -40 0 0 170 0 170 34
0 33 0 7 -77z m136 -764 c0 -419 3 -639 10 -639 7 0 10 213 10 618 l0 617 36
-65 36 -65 -2 -305 c-1 -220 -5 -307 -13 -312 -8 -5 -6 -8 6 -8 9 0 17 -7 17
-15 0 -8 -7 -15 -15 -15 -8 0 -15 -4 -15 -10 0 -5 5 -10 10 -10 15 0 12 -30
-2 -30 -7 0 -4 -7 7 -16 19 -14 19 -16 3 -28 -10 -7 -18 -16 -18 -20 0 -3 8
-6 18 -6 15 -1 15 -2 -2 -15 -17 -13 -18 -15 -3 -15 9 0 17 -7 17 -15 0 -8 -8
-15 -17 -15 -15 0 -15 -2 -4 -9 11 -7 15 -42 16 -160 2 -172 12 -154 -92 -166
l-53 -6 1 728 0 728 25 -54 24 -54 0 -638z m307 543 c54 -107 51 -84 44 -367
-2 -80 -2 -80 -18 -50 -9 17 -24 41 -34 54 -11 13 -19 34 -19 46 0 14 -7 25
-19 28 -19 5 -20 15 -20 201 0 108 4 194 9 191 5 -3 30 -49 57 -103z m-832
-1262 c8 0 15 -6 15 -12 0 -9 4 -8 10 2 5 8 10 11 10 6 0 -5 9 -1 20 9 19 17
19 29 15 281 l-4 264 40 0 39 0 -2 -300 c-2 -165 -3 -300 -3 -300 0 -3 -281
-56 -285 -54 -3 1 -5 274 -5 606 l0 603 65 105 65 105 3 -657 c2 -576 4 -658
17 -658z m695 1054 l52 -87 3 -132 2 -132 -48 5 c-33 3 -49 1 -49 -7 0 -7 20
-11 51 -11 48 0 51 -1 45 -22 -3 -13 -6 -40 -6 -61 l0 -38 -52 3 c-70 4 -78
28 -9 28 30 0 51 4 51 11 0 6 -18 9 -46 8 l-46 -3 -5 262 c-3 144 -3 262 0
262 3 0 29 -39 57 -86z m230 -122 c0 -145 -2 -163 -15 -152 -12 10 -15 43 -15
184 1 153 2 169 15 152 12 -16 15 -55 15 -184z m-780 -42 l0 -190 -40 0 -40 0
0 183 c0 101 3 187 7 190 3 4 21 7 40 7 l33 0 0 -190z m80 0 l0 -190 -30 0
-30 0 0 190 0 190 30 0 30 0 0 -190z m70 0 l0 -190 -30 0 -30 0 0 190 0 190
30 0 30 0 0 -190z m100 16 c0 -96 -3 -181 -6 -190 -4 -10 -18 -16 -40 -16
l-34 0 0 190 0 190 40 0 40 0 0 -174z m-566 -144 l4 -281 -51 -3 c-30 -2 -52
-8 -55 -16 -3 -10 8 -12 43 -10 32 2 49 -1 52 -9 3 -9 -10 -13 -46 -13 -30 0
-51 -4 -51 -11 0 -7 18 -10 47 -7 31 2 48 -1 50 -9 3 -9 -10 -13 -46 -13 -28
0 -51 -4 -51 -10 0 -5 23 -10 50 -10 35 0 50 -4 50 -14 0 -10 -12 -12 -50 -8
-33 3 -50 1 -50 -7 0 -7 20 -11 50 -11 38 0 50 -4 50 -15 0 -11 -14 -15 -57
-17 l-58 -2 58 -3 c41 -3 57 -8 57 -18 0 -11 -13 -15 -52 -15 -54 0 -59 -14
-5 -16 59 -2 67 -4 67 -14 0 -5 -25 -10 -55 -10 -33 0 -55 -4 -55 -11 0 -6 20
-9 52 -8 42 3 54 0 56 -13 3 -13 -4 -15 -36 -11 -22 3 -48 0 -58 -6 -15 -8 -8
-10 39 -11 44 0 57 -3 57 -15 0 -11 -14 -15 -57 -17 l-58 -2 56 -3 55 -4 2
-114 c1 -127 6 -119 -81 -130 l-57 -7 0 501 0 501 62 90 c34 49 63 88 65 86 2
-1 5 -129 7 -284z m1164 215 c32 -61 33 -64 32 -194 0 -81 -4 -133 -10 -133
-5 0 -25 24 -43 53 l-34 52 5 143 c2 78 7 142 11 142 3 0 21 -28 39 -63z
m1082 -10 c0 -21 -33 -132 -43 -145 -7 -8 -28 -12 -61 -10 l-51 3 0 80 0 80
45 5 c59 7 110 1 110 -13z m-1242 -127 l42 -58 0 -343 c0 -188 2 -340 4 -338
11 12 15 110 16 367 0 256 5 315 24 266 4 -9 7 -153 7 -320 0 -184 4 -304 10
-304 5 0 9 114 9 288 l0 287 45 -50 45 -50 -5 -235 c-5 -165 -3 -231 4 -220 7
9 11 97 11 230 l1 215 49 -55 49 -55 3 -170 c2 -105 -1 -173 -7 -177 -5 -4
-30 -10 -55 -13 -25 -4 -67 -10 -95 -15 -71 -13 -159 -27 -240 -40 -38 -6 -80
-13 -93 -16 l-23 -5 6 242 6 241 49 2 c35 1 50 -3 50 -11 0 -8 -13 -13 -32
-13 -18 0 -40 -5 -48 -11 -11 -7 -3 -9 33 -7 l47 3 0 -42 0 -43 -47 -2 -48 -1
49 -6 48 -6 -1 -139 c-1 -77 -4 -143 -7 -148 -3 -4 -1 -8 4 -8 17 0 22 81 24
468 2 264 6 378 13 367 5 -10 29 -44 53 -75z m1258 -16 c-8 -20 -26 -17 -26 5
0 10 6 33 13 52 l12 34 3 -39 c2 -21 1 -44 -2 -52z m-990 -20 l44 -67 0 -113
c0 -63 -3 -114 -6 -114 -7 0 -34 29 -70 76 -23 29 -24 39 -24 164 0 73 3 131
6 128 3 -3 25 -36 50 -74z m-1426 -458 c1 -263 -1 -480 -3 -483 -3 -2 -26 -8
-53 -12 -27 -5 -83 -16 -124 -24 -41 -9 -167 -34 -280 -56 -113 -23 -221 -45
-240 -50 -67 -18 -95 -18 -92 2 2 9 -2 25 -7 35 -8 14 -10 10 -11 -20 0 -43
-1 -43 -60 -52 l-45 -6 2 117 c1 65 2 187 2 272 l1 154 23 -21 c23 -22 23 -23
19 -223 -3 -145 -1 -199 7 -195 7 5 11 68 11 192 0 151 3 184 14 184 23 0 26
-24 27 -208 1 -112 4 -165 9 -143 4 18 9 95 9 169 1 75 4 138 6 141 3 2 11 -2
19 -9 12 -9 16 -43 18 -159 2 -105 6 -137 12 -113 5 18 14 31 20 30 6 -2 12 2
13 7 1 6 -6 10 -15 9 -15 0 -17 12 -17 98 0 54 1 98 2 98 1 0 14 -5 29 -12
l26 -12 -4 -118 c-2 -94 0 -118 10 -118 11 0 13 23 10 110 -1 61 0 110 4 110
34 0 38 -13 38 -111 0 -59 4 -99 10 -99 6 0 10 36 10 89 l0 88 26 -5 c26 -5
26 -6 22 -78 -2 -55 0 -74 9 -74 9 0 13 19 13 66 0 57 2 65 18 62 13 -2 18
-15 20 -61 4 -73 22 -75 22 -2 0 55 0 55 28 49 49 -11 52 -13 52 -49 0 -19 5
-35 10 -35 6 0 10 16 10 35 0 24 5 35 15 35 10 0 15 -11 15 -35 0 -19 5 -35
10 -35 6 0 10 16 10 35 0 33 1 34 35 33 27 -1 35 -6 35 -20 0 -10 5 -18 10
-18 6 0 10 7 10 15 0 17 27 20 32 4 2 -7 13 -9 27 -4 18 6 21 9 10 16 -8 5 -9
9 -3 9 20 0 34 -25 34 -63 0 -23 4 -36 10 -32 6 3 10 23 10 44 0 38 0 39 48
46 l47 8 -44 8 c-25 5 -49 13 -54 18 -6 6 -8 149 -5 358 l3 348 54 72 c30 40
56 71 58 70 1 -2 3 -218 3 -481z m-1154 429 c-4 -14 -20 -63 -37 -110 l-31
-85 -44 0 -44 0 0 74 c0 40 -3 88 -6 105 -10 51 8 35 49 -40 49 -91 61 -82 14
11 l-35 70 70 0 c70 0 70 0 64 -25z m3318 -375 c-15 -22 -28 -39 -30 -37 -9 8
-5 245 4 267 6 14 18 52 29 85 l18 60 3 -167 c2 -167 2 -168 -24 -208z m-3294
270 c0 -89 0 -90 -25 -90 -20 0 -25 5 -25 23 0 25 39 157 46 157 2 0 4 -40 4
-90z m122 -70 c23 -50 24 -63 19 -155 l-6 -100 -42 59 -43 59 1 146 1 146 23
-50 c12 -27 34 -75 47 -105z m3338 138 c0 -7 -10 -38 -22 -70 -34 -88 -76 -73
-64 22 2 19 4 41 5 48 1 16 81 17 81 0z m87 -44 c-3 -31 -8 -58 -11 -61 -9
-10 -86 -13 -86 -4 0 5 10 34 21 65 20 51 25 56 52 56 l30 0 -6 -56z m-3804
-473 c-18 -26 -18 -24 -24 99 l-6 125 0 -143 c0 -130 -2 -146 -22 -172 -11
-16 -21 -34 -21 -40 0 -5 -4 -10 -10 -10 -6 0 -10 58 -10 153 l0 152 52 161
53 162 3 -231 c2 -206 1 -233 -15 -256z m2908 442 c12 -21 33 -51 46 -66 21
-26 22 -35 17 -98 -5 -49 -4 -69 5 -69 7 0 11 20 11 55 0 30 4 55 9 55 16 0
29 -54 26 -105 -2 -27 -4 -62 -4 -77 -1 -39 -31 -26 -31 14 0 23 -4 28 -17 24
-12 -3 -30 10 -55 40 l-38 45 0 110 c0 60 2 109 4 109 2 0 15 -17 27 -37z
m-1651 -348 l0 -335 -43 0 c-24 0 -49 6 -55 12 -10 10 -15 10 -22 -2 -7 -10
-10 -11 -10 -2 0 6 -7 12 -15 12 -8 0 -15 -7 -15 -15 0 -24 -17 -17 -24 10 -7
26 -25 34 -27 13 -3 -29 -4 -33 -14 -35 -5 -1 -9 8 -8 20 1 18 -10 27 -53 46
l-55 24 3 135 c2 97 7 137 16 140 7 2 12 -5 12 -17 0 -11 5 -23 11 -27 8 -4 9
3 4 25 -4 20 -2 37 5 46 22 26 30 16 30 -36 0 -27 4 -48 9 -45 5 3 8 31 7 61
-2 54 -1 56 41 91 36 29 43 32 44 17 1 -10 1 -98 0 -195 -1 -118 2 -178 9
-178 7 0 10 69 10 206 -1 125 2 210 8 216 17 17 24 -84 19 -284 -2 -103 0
-193 4 -200 5 -7 9 109 9 258 0 258 1 272 20 289 20 18 20 17 20 -68 0 -56 4
-87 11 -87 7 0 10 33 8 98 -2 70 1 103 12 120 7 12 17 22 21 22 5 0 8 -151 8
-335z m2480 210 c0 -58 -2 -65 -20 -65 -17 0 -20 7 -20 46 0 27 -4 43 -10 39
-5 -3 -10 -24 -10 -46 0 -32 -3 -39 -20 -39 -11 0 -20 2 -20 5 0 15 46 102 60
112 32 26 40 15 40 -52z m58 -3 c3 -57 1 -62 -18 -62 -18 0 -20 6 -20 58 0 32
3 62 7 66 17 17 28 -5 31 -62z m-1338 23 c0 -12 -13 -15 -55 -15 -42 0 -55 3
-55 15 0 12 13 15 55 15 42 0 55 -3 55 -15z m-530 -246 c0 -182 3 -250 11
-247 8 3 11 74 10 251 l-2 247 30 0 31 0 2 -247 c1 -137 2 -263 3 -282 0 -29
-4 -36 -30 -46 -16 -7 -50 -15 -74 -19 -37 -6 -43 -4 -37 10 3 8 6 144 6 300
l0 284 25 0 25 0 0 -251z m175 154 c7 -85 0 -452 -8 -460 -2 -1 -18 -6 -35 -9
l-32 -6 0 286 0 286 34 0 34 0 7 -97z m1404 -7 c0 -99 -2 -105 -24 -120 -13
-9 -26 -16 -28 -16 -9 0 1 162 11 172 7 7 12 19 12 28 0 14 18 40 27 40 1 0 2
-47 2 -104z m-3046 -10 c0 -12 0 -52 -1 -89 -2 -61 -4 -67 -17 -53 -25 25 -32
58 -27 144 l4 84 20 -33 c11 -18 20 -42 21 -53z m-352 7 c-16 -32 -31 -65 -34
-73 -3 -8 -6 18 -6 58 l-1 72 34 0 34 0 -27 -57z m149 -38 l0 -95 -85 0 c-48
0 -85 4 -85 10 0 9 57 157 66 172 3 4 27 8 55 8 l49 0 0 -95z m2890 -87 c0
-67 -13 -74 -71 -35 -34 23 -34 23 -37 112 l-3 90 56 -55 c54 -53 55 -55 55
-112z m-180 -28 c0 -33 -4 -60 -10 -60 -5 0 -25 8 -45 17 l-35 17 0 88 0 87
45 -45 c43 -43 45 -47 45 -104z m466 4 c-3 -9 -22 -14 -51 -14 l-45 0 45 67
c25 37 46 72 47 77 1 6 3 -18 5 -53 2 -35 2 -70 -1 -77z m-3110 109 c10 -14
13 -88 14 -342 0 -178 3 -322 6 -318 3 3 6 144 6 313 l-1 306 25 -22 24 -23 0
-284 c0 -187 3 -282 10 -278 6 4 10 104 10 267 0 260 0 261 20 243 19 -17 20
-31 20 -305 l0 -287 -42 -11 c-85 -22 -98 -23 -103 -10 -6 18 -13 768 -7 768
3 0 11 -8 18 -17z m207 -49 c44 -53 47 -59 47 -115 0 -32 -4 -59 -8 -59 -21 0
-32 29 -32 90 -1 51 -3 61 -11 46 -6 -10 -9 -33 -6 -52 7 -40 -4 -50 -26 -26
-16 17 -32 172 -18 172 4 0 28 -25 54 -56z m3147 -45 c0 -46 4 -79 10 -79 6 0
10 33 10 79 0 70 2 79 20 84 22 6 23 -3 20 -110 -1 -32 3 -53 9 -53 7 0 11 29
11 79 0 64 3 80 16 85 9 4 18 5 19 4 2 -2 4 -48 6 -103 l4 -100 -140 -7 c-77
-4 -192 -11 -255 -17 -63 -6 -143 -14 -177 -17 l-63 -6 0 41 c0 28 4 41 14 41
7 0 35 3 61 7 41 5 47 4 43 -9 -4 -8 -2 -21 3 -29 6 -10 9 -5 9 18 0 36 8 40
93 45 l47 3 0 -33 c0 -20 4 -31 10 -27 6 3 10 25 10 47 0 27 6 45 18 54 28 22
32 17 33 -38 l2 -53 9 63 c7 43 17 71 34 89 l24 26 0 -92 c0 -89 0 -91 24 -91
19 0 24 6 29 36 4 21 4 56 0 80 -7 55 0 74 26 67 19 -5 21 -13 21 -84z m-420
-30 c0 -7 -62 -29 -82 -29 -5 0 -8 23 -8 51 l0 50 45 -32 c25 -18 45 -36 45
-40z m-240 -20 c0 -28 -4 -39 -15 -39 -11 0 -15 12 -15 51 0 45 2 50 15 39 9
-7 15 -29 15 -51z m-2120 -69 c0 -60 -2 -110 -5 -110 -3 0 -28 15 -55 33 -47
30 -50 34 -50 76 0 30 5 48 18 57 27 21 32 17 33 -23 1 -21 5 -49 9 -63 6 -18
8 -4 7 45 -2 67 8 94 36 95 4 0 7 -49 7 -110z m2189 72 c22 -10 38 -22 34 -26
-4 -4 0 -4 10 0 15 5 17 0 17 -39 0 -52 12 -47 -149 -67 -130 -16 -121 -19
-121 51 0 59 1 61 23 54 12 -3 32 -9 45 -12 12 -3 22 -8 22 -12 0 -3 17 -6 37
-5 37 1 38 2 35 38 -2 20 -1 36 1 36 3 0 23 -8 46 -18z m-2467 -9 c10 -9 18
-26 18 -37 0 -17 2 -18 10 -6 9 13 11 13 20 0 7 -11 5 -16 -8 -19 -31 -6 -42
-21 -32 -42 8 -15 7 -17 -4 -13 -9 3 -18 22 -21 42 -3 21 -8 49 -10 65 -5 31
1 34 27 10z m-362 -118 l0 -105 -92 0 -93 0 3 105 3 105 90 0 89 0 0 -105z
m510 55 c0 -33 -11 -38 -30 -15 -10 12 -10 18 0 30 19 23 30 18 30 -15z m-60
-60 c0 -27 -3 -50 -7 -50 -13 0 -53 44 -53 58 0 16 28 41 48 42 8 0 12 -16 12
-50z m48 8 c12 -12 17 -98 6 -98 -17 0 -34 34 -34 69 0 42 7 50 28 29z m3047
-39 c10 -31 -12 -89 -50 -135 l-33 -39 -27 25 c-32 30 -52 66 -55 100 -5 58
-4 59 63 63 34 2 70 4 79 5 9 1 20 -7 23 -19z m-2984 1 c14 -8 19 -21 19 -50
0 -43 -2 -45 -31 -30 -14 8 -19 21 -19 50 0 43 2 45 31 30z m2066 -42 c-3 -8
-6 -5 -6 6 -1 11 2 17 5 13 3 -3 4 -12 1 -19z m-1999 3 c8 -5 12 -21 10 -38
-3 -26 -6 -29 -24 -23 -17 7 -20 15 -16 39 5 33 9 36 30 22z m1972 -12 c0 -5
-7 -9 -15 -9 -15 0 -20 12 -9 23 8 8 24 -1 24 -14z m-1860 -64 c0 -12 -7 -14
-27 -9 -49 10 -53 13 -53 39 l0 25 40 -20 c22 -11 40 -27 40 -35z m1621 12
c-7 -7 -12 -5 -17 7 -4 11 -1 21 7 27 17 11 26 -18 10 -34z m74 33 c-3 -5 -11
-10 -16 -10 -6 0 -7 5 -4 10 3 6 11 10 16 10 6 0 7 -4 4 -10z m45 6 c0 -2 -7
-9 -15 -16 -13 -11 -14 -10 -9 4 5 14 24 23 24 12z m65 -6 c-3 -5 -14 -10 -23
-9 -14 0 -13 2 3 9 27 11 27 11 20 0z m-265 -20 c0 -5 -5 -10 -11 -10 -5 0 -7
5 -4 10 3 6 8 10 11 10 2 0 4 -4 4 -10z m147 -6 c-3 -3 -12 -4 -19 -1 -8 3 -5
6 6 6 11 1 17 -2 13 -5z m-311 -29 c-14 -14 -16 -14 -16 -2 0 9 6 17 13 20 19
7 21 -1 3 -18z m61 7 c0 -10 -9 -19 -20 -19 -18 -2 -18 -1 -2 18 22 23 24 24
22 1z m-159 -22 c-14 -22 -24 -19 -15 5 4 8 11 15 17 15 6 0 6 -7 -2 -20z m62
-1 c0 -6 -4 -7 -10 -4 -5 3 -10 11 -10 16 0 6 5 7 10 4 6 -3 10 -11 10 -16z
m165 11 c-3 -5 -10 -10 -16 -10 -5 0 -9 5 -9 10 0 6 7 10 16 10 8 0 12 -4 9
-10z m-285 -40 c5 0 11 8 13 18 4 13 5 11 6 -5 1 -17 -5 -23 -19 -23 -15 0
-20 6 -19 28 2 23 2 24 6 5 2 -13 8 -23 13 -23z m1453 4 l29 -34 -24 -29 c-37
-48 -48 -40 -48 34 0 36 3 65 8 64 4 0 20 -16 35 -35z m137 -35 c0 -78 -6 -80
-51 -18 l-19 27 26 31 c14 17 30 31 35 31 5 0 9 -32 9 -71z m-1760 16 c-7 -9
-15 -13 -18 -10 -3 2 1 11 8 20 7 9 15 13 18 10 3 -2 -1 -11 -8 -20z m50 5 c0
-14 -7 -20 -22 -20 -20 0 -21 1 -3 20 10 11 20 20 22 20 1 0 3 -9 3 -20z m-90
3 c0 -5 -4 -14 -9 -21 -6 -10 -10 -9 -14 7 -3 14 0 21 9 21 8 0 14 -3 14 -7z
m-124 -35 c-18 -26 -22 -17 -5 14 6 11 13 17 16 15 3 -3 -2 -16 -11 -29z m-95
-21 c-8 -8 -11 -7 -11 4 0 9 3 19 7 23 4 4 9 2 11 -4 3 -7 -1 -17 -7 -23z m59
14 c0 -11 -4 -22 -9 -25 -11 -7 -20 14 -13 32 7 19 22 14 22 -7z m77 -6 c-4
-8 -11 -15 -17 -15 -7 0 -7 6 0 21 13 23 26 19 17 -6z m48 5 c3 -5 1 -10 -4
-10 -6 0 -11 5 -11 10 0 6 2 10 4 10 3 0 8 -4 11 -10z m-232 -15 c-3 -9 -8
-14 -10 -11 -3 3 -2 9 2 15 9 16 15 13 8 -4z m2047 -67 c0 -4 -32 -8 -71 -8
-39 0 -69 4 -67 9 2 4 16 25 32 45 l30 36 38 -37 c21 -20 38 -41 38 -45z
m-2100 68 c0 -3 -4 -8 -10 -11 -5 -3 -10 -1 -10 4 0 6 5 11 10 11 6 0 10 -2
10 -4z m-36 -21 c-4 -8 -10 -15 -15 -15 -5 0 -9 7 -9 15 0 8 7 15 15 15 9 0
12 -6 9 -15z m-64 -3 c0 -4 -15 -16 -32 -27 -29 -16 -31 -16 -19 -2 12 15 12
17 -3 11 -9 -4 -16 -1 -16 6 0 8 9 10 25 6 14 -4 25 -2 25 4 0 5 5 10 10 10 6
0 10 -4 10 -8z m120 -2 c0 -5 -7 -10 -16 -10 -8 0 -12 5 -9 10 3 6 10 10 16
10 5 0 9 -4 9 -10z m-279 -37 c-8 -15 -10 -15 -11 -2 0 17 10 32 18 25 2 -3
-1 -13 -7 -23z m194 17 c3 -5 -1 -10 -10 -10 -9 0 -13 5 -10 10 3 6 8 10 10
10 2 0 7 -4 10 -10z m-155 -14 c0 -15 -18 -31 -26 -23 -7 7 7 37 17 37 5 0 9
-6 9 -14z m-126 -15 c-22 -21 -27 -21 -18 3 3 9 13 16 22 16 13 0 12 -3 -4
-19z m46 -7 c0 -8 -7 -14 -15 -14 -17 0 -18 2 -9 24 7 18 24 12 24 -10z m-143
-16 c-3 -8 -6 -5 -6 6 -1 11 2 17 5 13 3 -3 4 -12 1 -19z m49 5 c-3 -21 -26
-30 -26 -10 0 7 3 17 7 20 12 12 21 7 19 -10z m-86 -5 c0 -24 -17 -40 -36 -35
-17 4 -17 6 4 12 14 5 21 13 18 21 -3 8 -1 14 4 14 6 0 10 -6 10 -12z m-70
-18 c-6 -11 -13 -20 -15 -20 -3 0 -5 9 -5 20 0 11 7 20 15 20 13 0 14 -4 5
-20z m2667 5 c7 -23 -18 -39 -71 -45 -31 -3 -56 -3 -56 1 0 4 -9 9 -20 12 -12
3 -20 14 -20 26 0 21 4 22 82 19 45 -2 83 -7 85 -13z m-2757 -12 c0 -14 -19
-38 -25 -32 -8 8 5 39 16 39 5 0 9 -3 9 -7z m1050 1 c0 -12 -46 -70 -97 -124
l-53 -55 -43 45 c-65 69 -97 110 -97 126 0 11 26 14 145 14 80 0 145 -3 145
-6z m-1200 -35 c0 -11 -4 -17 -10 -14 -5 3 -10 13 -10 21 0 8 5 14 10 14 6 0
10 -9 10 -21z m36 -6 c-10 -10 -19 5 -10 18 6 11 8 11 12 0 2 -7 1 -15 -2 -18z
m40 12 c-3 -10 1 -15 12 -16 14 0 14 -2 -3 -8 -11 -5 -22 -7 -23 -5 -5 4 8 44
15 44 3 0 3 -7 -1 -15z m129 5 c-3 -5 -13 -10 -21 -10 -8 0 -12 5 -9 10 3 6
13 10 21 10 8 0 12 -4 9 -10z m-275 -29 c0 -30 -17 -34 -22 -6 -4 17 -1 25 8
25 8 0 14 -9 14 -19z m44 -7 c4 -10 1 -14 -6 -12 -15 5 -23 28 -10 28 5 0 13
-7 16 -16z m-173 -31 c-8 -15 -10 -15 -11 -2 0 17 10 32 18 25 2 -3 -1 -13 -7
-23z m1216 -114 c-4 -14 -120 -139 -128 -139 -11 0 -12 264 -2 274 7 7 134
-124 130 -135z m-1297 104 c0 -20 -3 -24 -11 -16 -7 7 -9 19 -6 27 10 24 17
19 17 -11z m54 18 c3 -5 -1 -14 -9 -21 -13 -10 -15 -9 -15 9 0 21 14 28 24 12z
m86 -1 c0 -5 -4 -10 -10 -10 -5 0 -10 5 -10 10 0 6 5 10 10 10 6 0 10 -4 10
-10z m1349 -142 c0 -53 -3 -99 -8 -102 -4 -3 -19 7 -32 22 -53 60 -79 94 -79
102 0 4 24 36 53 70 l52 62 6 -28 c4 -16 7 -73 8 -126z m-1579 123 c0 -6 -4
-13 -10 -16 -5 -3 -10 1 -10 9 0 9 5 16 10 16 6 0 10 -4 10 -9z m50 -11 c0
-14 -7 -20 -22 -20 -20 0 -21 1 -3 20 10 11 20 20 22 20 1 0 3 -9 3 -20z m-59
-21 c10 -6 7 -8 -9 -6 -15 1 -22 8 -22 22 0 15 2 17 9 6 5 -7 15 -17 22 -22z
m-91 17 c0 -3 -4 -8 -10 -11 -5 -3 -10 -1 -10 4 0 6 5 11 10 11 6 0 10 -2 10
-4z m20 -31 c-7 -9 -15 -13 -18 -10 -3 2 1 11 8 20 7 9 15 13 18 10 3 -2 -1
-11 -8 -20z m-104 -1 c-3 -9 -6 -20 -6 -25 0 -5 -4 -9 -10 -9 -5 0 -10 11 -10
25 0 16 6 25 16 25 11 0 14 -5 10 -16z m51 -4 c1 -11 -4 -20 -13 -20 -16 0
-16 2 -8 24 8 22 19 20 21 -4z m-167 -18 c0 -5 -7 -17 -15 -28 -14 -19 -14
-19 -15 2 0 11 3 24 7 27 9 10 23 9 23 -1z m17 -24 c-3 -7 -5 -2 -5 12 0 14 2
19 5 13 2 -7 2 -19 0 -25z m-69 0 c-2 -11 -11 -22 -20 -24 -21 -3 -22 0 -8 27
14 26 32 24 28 -3z m-67 -31 c-8 -8 -11 -5 -11 9 0 27 14 41 18 19 2 -9 -1
-22 -7 -28z m-51 -6 c-14 -27 -30 -27 -30 -1 0 11 7 20 15 20 8 0 15 6 16 13
0 9 2 9 5 0 3 -7 0 -21 -6 -32z m-50 5 c0 -8 -4 -18 -10 -21 -5 -3 -10 3 -10
14 0 12 5 21 10 21 6 0 10 -6 10 -14z m-60 -4 c0 -5 -9 -17 -20 -27 -19 -18
-20 -17 -20 3 0 18 11 29 33 31 4 1 7 -3 7 -7z m21 -25 c-16 -16 -26 0 -10 19
9 11 15 12 17 4 2 -6 -1 -17 -7 -23z m2044 -44 c102 -115 109 -103 -65 -103
-89 0 -150 4 -148 9 5 15 139 161 147 161 4 0 34 -30 66 -67z m-2132 32 c-7
-21 -13 -19 -13 6 0 11 4 18 10 14 5 -3 7 -12 3 -20z m349 -2 c-11 -16 -28
-36 -39 -45 -19 -17 -21 -16 -53 17 -24 25 -29 36 -19 39 28 9 55 14 92 15
l38 1 -19 -27z m-427 -4 c4 -11 4 -23 0 -27 -7 -7 -25 17 -25 36 0 20 18 14
25 -9z m48 1 c3 -13 0 -20 -9 -20 -8 0 -14 9 -14 20 0 11 4 20 9 20 5 0 11 -9
14 -20z m395 -106 l-3 -26 -27 22 c-16 12 -28 25 -28 30 0 5 12 22 28 37 l27
27 3 -32 c2 -18 2 -44 0 -58z m-22 -55 c8 -14 -58 -81 -71 -71 -5 4 -21 20
-35 35 -21 24 -22 30 -10 37 21 13 107 12 116 -1z m1874 -29 c0 -11 -4 -20
-10 -20 -5 0 -10 -9 -10 -20 0 -19 -7 -20 -94 -20 -51 0 -108 -3 -125 -6 -27
-6 -31 -4 -31 15 0 12 -7 24 -15 27 -8 4 -15 15 -15 25 0 18 9 19 150 19 143
0 150 -1 150 -20z m-1968 -93 c-9 -11 -25 -23 -34 -28 -16 -9 -18 -4 -18 57
l0 67 34 -39 c32 -37 33 -40 18 -57z m128 11 c0 -60 -11 -62 -54 -10 -19 22
-19 22 9 52 35 36 45 27 45 -42z m-76 -86 c-86 -5 -94 2 -54 43 l34 35 39 -37
38 -38 -57 -3z"
    />
    <path d="M1737 2814 c-9 -10 2 -24 19 -24 8 0 14 7 14 15 0 15 -21 21 -33 9z" />
    <path
      d="M2670 2850 c0 -5 7 -10 16 -10 8 0 12 5 9 10 -3 6 -10 10 -16 10 -5
0 -9 -4 -9 -10z"
    />
    <path d="M2525 1650 c-4 -6 3 -10 14 -10 25 0 27 6 6 13 -8 4 -17 2 -20 -3z" />
    <path
      d="M1894 2355 c1 -107 4 -195 9 -195 10 0 9 378 -1 384 -5 3 -8 -83 -8
-189z"
    />
    <path d="M1898 2010 c-4 -14 -7 -79 -7 -145 l2 -120 8 75 c11 88 8 229 -3 190z" />
    <path d="M1911 1627 c-1 -36 3 -56 9 -52 12 7 12 49 0 85 -6 19 -8 11 -9 -33z" />
    <path
      d="M2040 1576 c-8 -10 -10 -20 -4 -26 14 -14 32 3 25 23 -6 17 -8 18
-21 3z"
    />
    <path
      d="M1905 1540 c-19 -8 -19 -9 3 -9 12 -1 22 4 22 9 0 6 -1 10 -2 9 -2 0
-12 -4 -23 -9z"
    />
    <path
      d="M2670 2425 c0 -8 5 -15 10 -15 6 0 10 7 10 15 0 8 -4 15 -10 15 -5 0
-10 -7 -10 -15z"
    />
    <path
      d="M2660 2350 c0 -5 7 -10 16 -10 8 0 12 5 9 10 -3 6 -10 10 -16 10 -5
0 -9 -4 -9 -10z"
    />
    <path d="M2668 2243 c12 -2 32 -2 45 0 12 2 2 4 -23 4 -25 0 -35 -2 -22 -4z" />
    <path
      d="M1750 2460 c0 -5 5 -10 10 -10 6 0 10 5 10 10 0 6 -4 10 -10 10 -5 0
-10 -4 -10 -10z"
    />
    <path
      d="M1740 2280 c0 -5 5 -10 10 -10 6 0 10 5 10 10 0 6 -4 10 -10 10 -5 0
-10 -4 -10 -10z"
    />
    <path
      d="M1740 2149 c0 -5 5 -7 10 -4 6 3 10 8 10 11 0 2 -4 4 -10 4 -5 0 -10
-5 -10 -11z"
    />
    <path
      d="M1748 1590 c2 -22 8 -40 13 -40 5 0 9 18 9 40 0 26 -5 40 -13 40 -9
0 -11 -12 -9 -40z"
    />
    <path
      d="M1730 1500 c0 -13 20 -13 40 0 12 8 9 10 -12 10 -16 0 -28 -4 -28
-10z"
    />
    <path d="M2982 2475 c0 -16 2 -22 5 -12 2 9 2 23 0 30 -3 6 -5 -1 -5 -18z" />
    <path d="M2982 2375 c0 -16 2 -22 5 -12 2 9 2 23 0 30 -3 6 -5 -1 -5 -18z" />
    <path
      d="M2979 2138 c-1 -24 -3 -59 -5 -78 -1 -19 1 -40 5 -47 3 -7 8 28 9 77
1 50 0 90 -3 90 -3 0 -6 -19 -6 -42z"
    />
    <path d="M2804 2075 c0 -55 1 -76 3 -47 2 29 2 74 0 100 -2 26 -3 2 -3 -53z" />
    <path
      d="M2655 2020 c-4 -6 10 -10 35 -10 25 0 39 4 35 10 -3 6 -19 10 -35 10
-16 0 -32 -4 -35 -10z"
    />
    <path
      d="M2790 1920 c0 -22 5 -40 10 -40 6 0 10 18 10 40 0 22 -4 40 -10 40
-5 0 -10 -18 -10 -40z"
    />
    <path d="M2668 1893 c7 -3 16 -2 19 1 4 3 -2 6 -13 5 -11 0 -14 -3 -6 -6z" />
    <path d="M2708 1893 c7 -3 16 -2 19 1 4 3 -2 6 -13 5 -11 0 -14 -3 -6 -6z" />
    <path d="M2977 1831 c-4 -36 -3 -69 2 -74 14 -14 17 3 11 73 l-5 65 -8 -64z" />
    <path
      d="M3080 1830 c0 -22 4 -40 9 -40 6 0 9 18 8 40 -1 22 -5 40 -9 40 -4 0
-8 -18 -8 -40z"
    />
    <path
      d="M2666 1849 c3 -5 18 -9 35 -9 16 0 29 4 29 9 0 5 -16 9 -35 9 -19 0
-32 -4 -29 -9z"
    />
    <path d="M2667 1808 c-7 -4 4 -8 26 -8 21 0 36 4 32 9 -6 11 -40 10 -58 -1z" />
    <path d="M2828 1803 c-2 -5 -1 -24 3 -43 l6 -35 2 43 c1 39 -3 52 -11 35z" />
    <path d="M2667 1758 c-7 -5 1 -8 21 -8 17 0 32 4 32 8 0 10 -37 10 -53 0z" />
    <path d="M3076 1732 c-3 -5 8 -6 25 -4 16 2 29 6 29 8 0 8 -49 4 -54 -4z" />
    <path d="M2793 1683 c9 -2 23 -2 30 0 6 3 -1 5 -18 5 -16 0 -22 -2 -12 -5z" />
    <path d="M2685 1670 c-19 -8 -19 -9 2 -9 12 -1 25 4 28 9 7 12 -2 12 -30 0z" />
    <path
      d="M1605 2290 c3 -5 10 -10 16 -10 5 0 9 5 9 10 0 6 -7 10 -16 10 -8 0
-12 -4 -9 -10z"
    />
    <path
      d="M1594 2195 c1 -72 21 -72 22 0 1 36 -3 55 -10 55 -8 0 -12 -19 -12
-55z"
    />
    <path
      d="M1600 2030 c0 -5 7 -10 16 -10 8 0 12 5 9 10 -3 6 -10 10 -16 10 -5
0 -9 -4 -9 -10z"
    />
    <path
      d="M1595 1855 c-4 -60 -3 -129 3 -162 8 -51 10 -38 11 105 0 89 -1 162
-3 162 -2 0 -7 -47 -11 -105z"
    />
    <path d="M1391 1504 c0 -11 3 -14 6 -6 3 7 2 16 -1 19 -3 4 -6 -2 -5 -13z" />
    <path d="M1590 1480 c0 -6 11 -8 28 -4 39 10 40 14 4 14 -18 0 -32 -5 -32 -10z" />
    <path
      d="M1461 1459 c-18 -6 -31 -13 -28 -16 8 -8 67 7 67 18 0 5 -1 9 -2 8
-2 0 -18 -5 -37 -10z"
    />
    <path d="M957 1426 c-4 -10 -5 -21 -2 -24 9 -9 17 6 13 25 -3 17 -4 17 -11 -1z" />
    <path
      d="M1331 1418 c1 -15 3 -17 6 -7 3 11 12 15 31 11 15 -3 23 -1 19 4 -4
4 -19 10 -32 11 -21 3 -25 0 -24 -19z"
    />
    <path
      d="M1190 1400 c-12 -8 -11 -10 5 -9 11 1 31 5 45 9 24 8 24 8 -5 9 -16
0 -37 -4 -45 -9z"
    />
    <path
      d="M1080 1384 c-37 -14 -23 -18 29 -8 17 4 31 10 31 15 0 12 -17 10 -60
-7z"
    />
    <path d="M1002 1350 c0 -14 2 -19 5 -12 2 6 2 18 0 25 -3 6 -5 1 -5 -13z" />
    <path
      d="M790 1320 c0 -5 9 -10 20 -10 11 0 20 5 20 10 0 6 -9 10 -20 10 -11
0 -20 -4 -20 -10z"
    />
    <path
      d="M1330 1860 c0 -93 4 -150 10 -150 6 0 10 57 10 150 0 93 -4 150 -10
150 -6 0 -10 -57 -10 -150z"
    />
    <path
      d="M1473 1964 c-8 -20 13 -42 27 -28 12 12 3 44 -11 44 -5 0 -12 -7 -16
-16z"
    />
    <path
      d="M1480 1810 c0 -68 4 -110 10 -110 7 0 10 41 9 110 0 61 -5 110 -10
110 -5 0 -9 -49 -9 -110z"
    />
    <path
      d="M1235 1860 c-3 -5 -1 -10 4 -10 6 0 11 5 11 10 0 6 -2 10 -4 10 -3 0
-8 -4 -11 -10z"
    />
    <path
      d="M1280 1841 c0 -11 5 -23 10 -26 6 -3 10 3 10 14 0 11 -4 23 -10 26
-5 3 -10 -3 -10 -14z"
    />
    <path d="M1342 1680 c0 -14 2 -19 5 -12 2 6 2 18 0 25 -3 6 -5 1 -5 -13z" />
    <path d="M1481 1633 c0 -29 2 -33 8 -18 7 18 4 55 -5 55 -2 0 -4 -17 -3 -37z" />
    <path d="M477 2010 c-3 -11 -1 -23 4 -26 5 -3 9 6 9 20 0 31 -6 34 -13 6z" />
    <path
      d="M470 1958 c0 -7 5 -20 10 -28 8 -12 10 -9 10 13 0 15 -4 27 -10 27
-5 0 -10 -6 -10 -12z"
    />
    <path
      d="M635 1280 c-8 -13 15 -13 35 0 12 8 11 10 -7 10 -12 0 -25 -4 -28
-10z"
    />
    <path d="M3500 1780 c-9 -6 -10 -10 -3 -10 6 0 15 5 18 10 8 12 4 12 -15 0z" />
    <path d="M3358 1763 c7 -3 16 -2 19 1 4 3 -2 6 -13 5 -11 0 -14 -3 -6 -6z" />
    <path
      d="M3210 1750 c-12 -8 -12 -10 5 -10 11 0 27 5 35 10 12 8 12 10 -5 10
-11 0 -27 -5 -35 -10z"
    />
    <path d="M484 1720 c0 -52 1 -74 3 -47 2 26 2 68 0 95 -2 26 -3 4 -3 -48z" />
    <path d="M413 1745 c0 -33 2 -45 4 -27 2 18 2 45 0 60 -2 15 -4 0 -4 -33z" />
    <path
      d="M3297 3833 c-11 -10 -8 -41 4 -49 6 -3 18 1 27 9 13 13 13 19 2 31
-14 17 -23 20 -33 9z m23 -23 c0 -5 -2 -10 -4 -10 -3 0 -8 5 -11 10 -3 6 -1
10 4 10 6 0 11 -4 11 -10z"
    />
    <path
      d="M1050 2981 c0 -507 4 -801 10 -801 13 0 12 1587 -1 1595 -5 4 -9
-297 -9 -794z"
    />
    <path
      d="M2664 3763 c-37 -26 -37 -72 0 -102 41 -34 98 26 74 77 -13 27 -52
40 -74 25z m50 -19 c24 -9 20 -61 -5 -75 -30 -16 -64 18 -55 55 6 26 27 33 60
20z"
    />
    <path
      d="M1300 3640 l0 -110 -51 0 c-36 0 -49 -4 -46 -12 2 -9 27 -13 73 -14
90 0 94 -1 94 -19 0 -11 -19 -15 -92 -17 l-93 -3 -3 -37 c-2 -22 1 -38 7 -38
6 0 11 14 11 30 l0 30 90 0 90 0 0 -45 c0 -25 5 -45 10 -45 6 0 10 25 10 55 0
30 -4 55 -10 55 -5 0 -10 14 -10 30 0 27 -3 30 -31 30 l-31 0 7 110 c7 98 6
110 -9 110 -14 0 -16 -15 -16 -110z"
    />
    <path
      d="M3305 3740 c-10 -15 -3 -1520 7 -1520 4 0 8 344 8 765 0 421 -2 765
-4 765 -3 0 -8 -5 -11 -10z"
    />
    <path d="M3671 3708 c0 -26 3 -49 7 -52 4 -2 6 12 4 32 -6 62 -10 69 -11 20z" />
    <path d="M3709 3703 c2 -36 5 -42 13 -29 11 20 7 68 -7 73 -6 2 -9 -15 -6 -44z" />
    <path d="M3637 3733 c-10 -9 -9 -23 1 -23 5 0 9 7 9 15 0 17 -1 18 -10 8z" />
    <path
      d="M1786 3695 c4 -8 2 -15 -4 -15 -6 0 -13 6 -15 13 -4 9 -6 9 -6 0 -1
-19 18 -26 34 -13 15 12 12 30 -5 30 -5 0 -7 -7 -4 -15z"
    />
    <path
      d="M3186 3590 c-3 -22 -3 -78 0 -125 l7 -85 -27 0 c-14 0 -26 -4 -26
-10 0 -5 15 -9 34 -7 l34 2 1 123 c0 67 3 127 6 132 3 6 0 10 -8 10 -9 0 -17
-15 -21 -40z"
    />
    <path
      d="M3433 3554 c-9 -23 13 -40 32 -24 12 10 13 16 4 26 -15 18 -28 18
-36 -2z"
    />
    <path
      d="M1597 3544 c-14 -15 -6 -34 14 -34 14 0 19 5 17 17 -3 18 -20 27 -31
17z m23 -14 c0 -5 -4 -10 -10 -10 -5 0 -10 5 -10 10 0 6 5 10 10 10 6 0 10 -4
10 -10z"
    />
    <path d="M1746 3501 c-3 -5 1 -14 8 -20 16 -13 32 2 21 19 -8 12 -22 13 -29 1z" />
    <path
      d="M744 3465 c-10 -25 4 -45 30 -45 26 0 47 25 39 48 -7 17 -62 15 -69
-3z m51 -15 c0 -8 -8 -16 -17 -18 -13 -2 -18 3 -18 18 0 15 5 20 18 18 9 -2
17 -10 17 -18z"
    />
    <path d="M3440 3345 c0 -49 3 -86 6 -82 7 7 6 158 -1 165 -3 3 -5 -34 -5 -83z" />
    <path d="M1230 3412 c0 -4 21 -6 48 -4 82 5 89 9 20 11 -38 0 -68 -2 -68 -7z" />
    <path
      d="M1593 3398 c2 -7 10 -13 17 -13 7 0 15 6 18 13 2 7 -5 12 -18 12 -13
0 -20 -5 -17 -12z"
    />
    <path d="M1280 3375 c0 -16 16 -20 24 -6 3 5 -1 11 -9 15 -9 3 -15 0 -15 -9z" />
    <path
      d="M1180 3370 c0 -5 5 -10 11 -10 5 0 7 5 4 10 -3 6 -8 10 -11 10 -2 0
-4 -4 -4 -10z"
    />
    <path
      d="M1230 3370 c0 -5 7 -10 15 -10 8 0 15 5 15 10 0 6 -7 10 -15 10 -8 0
-15 -4 -15 -10z"
    />
    <path d="M1325 3370 c3 -5 12 -7 20 -3 21 7 19 13 -6 13 -11 0 -18 -4 -14 -10z" />
    <path
      d="M3100 3115 c0 -163 4 -255 10 -255 6 0 10 92 10 255 0 163 -4 255
-10 255 -6 0 -10 -92 -10 -255z"
    />
    <path
      d="M3593 3354 c-7 -19 20 -49 36 -40 6 4 11 18 11 32 0 17 -5 24 -20 24
-11 0 -23 -7 -27 -16z"
    />
    <path
      d="M3250 2890 c0 -288 4 -460 10 -460 6 0 9 173 10 460 0 306 -3 460
-10 460 -7 0 -10 -154 -10 -460z"
    />
    <path d="M1387 3333 c-8 -15 -5 -73 4 -73 5 0 9 18 9 40 0 38 -4 48 -13 33z" />
    <path
      d="M1180 3314 c0 -8 5 -12 10 -9 6 3 10 10 10 16 0 5 -4 9 -10 9 -5 0
-10 -7 -10 -16z"
    />
    <path d="M1238 3323 c7 -3 16 -2 19 1 4 3 -2 6 -13 5 -11 0 -14 -3 -6 -6z" />
    <path
      d="M1280 3320 c0 -5 5 -10 10 -10 6 0 10 5 10 10 0 6 -4 10 -10 10 -5 0
-10 -4 -10 -10z"
    />
    <path
      d="M1330 3320 c0 -5 5 -10 10 -10 6 0 10 5 10 10 0 6 -4 10 -10 10 -5 0
-10 -4 -10 -10z"
    />
    <path
      d="M3150 3315 c0 -8 5 -15 10 -15 6 0 10 7 10 15 0 8 -4 15 -10 15 -5 0
-10 -7 -10 -15z"
    />
    <path d="M3195 3319 c-4 -6 -4 -13 -1 -16 8 -8 36 5 36 17 0 13 -27 13 -35 -1z" />
    <path
      d="M1510 3228 c0 -40 -3 -90 -6 -110 -5 -30 -3 -38 8 -38 24 0 44 28 30
42 -7 7 -12 45 -12 95 0 49 -4 83 -10 83 -6 0 -10 -31 -10 -72z"
    />
    <path
      d="M1670 3290 c0 -5 5 -10 10 -10 6 0 10 5 10 10 0 6 -4 10 -10 10 -5 0
-10 -4 -10 -10z"
    />
    <path
      d="M1180 3200 c0 -53 4 -90 10 -90 6 0 10 37 10 90 0 53 -4 90 -10 90
-6 0 -10 -37 -10 -90z"
    />
    <path
      d="M1230 3280 c0 -5 4 -10 9 -10 6 0 13 5 16 10 3 6 -1 10 -9 10 -9 0
-16 -4 -16 -10z"
    />
    <path
      d="M1280 3280 c0 -5 5 -10 10 -10 6 0 10 5 10 10 0 6 -4 10 -10 10 -5 0
-10 -4 -10 -10z"
    />
    <path
      d="M1330 3280 c0 -5 5 -10 10 -10 6 0 10 5 10 10 0 6 -4 10 -10 10 -5 0
-10 -4 -10 -10z"
    />
    <path
      d="M3505 3280 c3 -5 10 -10 16 -10 5 0 9 5 9 10 0 6 -7 10 -16 10 -8 0
-12 -4 -9 -10z"
    />
    <path
      d="M1110 3200 c0 -47 4 -80 10 -80 6 0 10 33 10 80 0 47 -4 80 -10 80
-6 0 -10 -33 -10 -80z"
    />
    <path
      d="M2734 3269 c-3 -6 -2 -15 4 -21 13 -13 32 -2 32 18 0 16 -26 19 -36
3z"
    />
    <path
      d="M3150 3265 c0 -8 5 -15 10 -15 6 0 10 7 10 15 0 8 -4 15 -10 15 -5 0
-10 -7 -10 -15z"
    />
    <path d="M3202 3271 c2 -7 7 -12 11 -12 12 1 9 15 -3 20 -7 2 -11 -2 -8 -8z" />
    <path d="M1230 3231 c0 -25 6 -27 13 -6 4 8 2 17 -3 20 -6 4 -10 -3 -10 -14z" />
    <path
      d="M1384 3210 c5 -58 16 -62 16 -7 0 26 -4 47 -10 47 -5 0 -8 -18 -6
-40z"
    />
    <path
      d="M1280 3230 c0 -5 7 -10 15 -10 8 0 15 5 15 10 0 6 -7 10 -15 10 -8 0
-15 -4 -15 -10z"
    />
    <path
      d="M1330 3230 c0 -5 5 -10 10 -10 6 0 10 5 10 10 0 6 -4 10 -10 10 -5 0
-10 -4 -10 -10z"
    />
    <path
      d="M3150 3226 c0 -9 5 -16 10 -16 6 0 10 4 10 9 0 6 -4 13 -10 16 -5 3
-10 -1 -10 -9z"
    />
    <path
      d="M3431 3222 c-5 -10 -7 -23 -3 -29 4 -6 6 -255 6 -552 -1 -310 2 -541
7 -541 5 0 9 230 9 535 0 388 3 540 12 554 12 20 5 51 -11 51 -6 0 -15 -8 -20
-18z m29 -12 c0 -5 -2 -10 -4 -10 -3 0 -8 5 -11 10 -3 6 -1 10 4 10 6 0 11 -4
11 -10z"
    />
    <path
      d="M3020 3220 c0 -5 9 -10 20 -10 11 0 20 5 20 10 0 6 -9 10 -20 10 -11
0 -20 -4 -20 -10z"
    />
    <path
      d="M3195 3220 c3 -5 10 -10 16 -10 5 0 9 5 9 10 0 6 -7 10 -16 10 -8 0
-12 -4 -9 -10z"
    />
    <path
      d="M834 3195 c-8 -21 4 -35 32 -35 19 0 24 5 24 25 0 20 -5 25 -25 25
-14 0 -28 -7 -31 -15z m36 -5 c0 -5 -5 -10 -11 -10 -5 0 -7 5 -4 10 3 6 8 10
11 10 2 0 4 -4 4 -10z"
    />
    <path d="M1230 3180 c0 -19 3 -21 12 -12 9 9 9 15 0 24 -9 9 -12 7 -12 -12z" />
    <path
      d="M1280 3186 c0 -9 5 -16 10 -16 6 0 10 4 10 9 0 6 -4 13 -10 16 -5 3
-10 -1 -10 -9z"
    />
    <path
      d="M1330 3185 c0 -8 5 -15 10 -15 6 0 10 7 10 15 0 8 -4 15 -10 15 -5 0
-10 -7 -10 -15z"
    />
    <path
      d="M3161 3200 c-2 -3 -5 -16 -7 -30 -5 -45 -5 -682 1 -688 3 -3 7 -3 10
0 3 3 4 166 2 364 -1 197 -4 357 -6 354z"
    />
    <path
      d="M1586 3181 c-14 -22 12 -38 30 -19 11 11 12 18 5 22 -6 4 -11 0 -12
-11 0 -16 -1 -16 -8 1 -6 15 -10 16 -15 7z"
    />
    <path
      d="M3200 3180 c0 -5 5 -10 10 -10 6 0 10 5 10 10 0 6 -4 10 -10 10 -5 0
-10 -4 -10 -10z"
    />
    <path
      d="M3030 3170 c0 -5 7 -10 15 -10 8 0 15 5 15 10 0 6 -7 10 -15 10 -8 0
-15 -4 -15 -10z"
    />
    <path d="M2778 3163 c7 -3 16 -2 19 1 4 3 -2 6 -13 5 -11 0 -14 -3 -6 -6z" />
    <path
      d="M3200 3140 c0 -5 5 -10 10 -10 6 0 10 5 10 10 0 6 -4 10 -10 10 -5 0
-10 -4 -10 -10z"
    />
    <path
      d="M3362 3139 c2 -6 8 -10 13 -10 5 0 11 4 13 10 2 6 -4 11 -13 11 -9 0
-15 -5 -13 -11z"
    />
    <path
      d="M970 3131 c0 -5 5 -13 10 -16 6 -3 10 -2 10 4 0 5 -4 13 -10 16 -5 3
-10 2 -10 -4z"
    />
    <path
      d="M1230 3130 c0 -5 7 -7 15 -4 8 4 15 8 15 10 0 2 -7 4 -15 4 -8 0 -15
-4 -15 -10z"
    />
    <path d="M1338 3133 c7 -3 16 -2 19 1 4 3 -2 6 -13 5 -11 0 -14 -3 -6 -6z" />
    <path
      d="M1381 3080 c-1 -36 3 -60 9 -60 6 0 10 25 10 60 0 33 -4 60 -9 60 -4
0 -9 -27 -10 -60z"
    />
    <path
      d="M2875 3129 c-4 -5 -1 -24 5 -40 l13 -29 13 26 c11 20 11 30 3 40 -14
17 -25 18 -34 3z"
    />
    <path
      d="M2951 3122 c-11 -21 -6 -32 16 -32 15 0 18 36 4 45 -6 3 -15 -3 -20
-13z"
    />
    <path
      d="M525 3120 c-4 -7 -3 -16 3 -22 14 -14 45 -2 40 15 -6 16 -34 21 -43
7z"
    />
    <path d="M1595 3121 c-3 -5 -1 -12 5 -16 5 -3 10 1 10 9 0 18 -6 21 -15 7z" />
    <path
      d="M3030 3115 c0 -8 4 -15 9 -15 5 0 11 7 15 15 3 9 0 15 -9 15 -8 0
-15 -7 -15 -15z"
    />
    <path
      d="M857 3063 c-9 -86 -7 -361 2 -413 6 -29 9 45 10 213 0 141 -1 257 -3
257 -2 0 -6 -26 -9 -57z"
    />
    <path
      d="M3200 2780 c0 -225 3 -340 10 -340 7 0 10 114 10 340 -1 208 -5 340
-10 340 -6 0 -10 -132 -10 -340z"
    />
    <path
      d="M3982 3103 c5 -25 32 -23 35 2 2 11 0 14 -3 8 -3 -7 -10 -13 -15 -13
-6 0 -7 5 -4 10 3 6 1 10 -5 10 -6 0 -10 -8 -8 -17z"
    />
    <path
      d="M3645 3099 c-10 -15 1 -23 20 -15 9 3 13 10 10 16 -8 13 -22 13 -30
-1z"
    />
    <path d="M710 3084 c0 -8 5 -12 10 -9 6 4 8 11 5 16 -9 14 -15 11 -15 -7z" />
    <path
      d="M1182 3020 c1 -44 6 -80 10 -80 4 0 8 36 8 80 0 46 -4 80 -10 80 -6
0 -9 -33 -8 -80z"
    />
    <path
      d="M1225 3090 c-3 -5 3 -10 14 -10 12 0 21 5 21 10 0 6 -6 10 -14 10 -8
0 -18 -4 -21 -10z"
    />
    <path
      d="M1280 3084 c0 -8 5 -12 10 -9 6 3 10 10 10 16 0 5 -4 9 -10 9 -5 0
-10 -7 -10 -16z"
    />
    <path
      d="M1325 3090 c3 -5 13 -10 21 -10 8 0 14 5 14 10 0 6 -9 10 -21 10 -11
0 -17 -4 -14 -10z"
    />
    <path
      d="M3370 3090 c0 -5 5 -10 10 -10 6 0 10 5 10 10 0 6 -4 10 -10 10 -5 0
-10 -4 -10 -10z"
    />
    <path
      d="M1102 3068 c7 -19 38 -22 38 -4 0 10 -9 16 -21 16 -12 0 -19 -5 -17
-12z"
    />
    <path
      d="M3030 3060 c0 -5 5 -10 10 -10 6 0 10 5 10 10 0 6 -4 10 -10 10 -5 0
-10 -4 -10 -10z"
    />
    <path
      d="M3500 3036 c0 -19 4 -38 10 -41 12 -7 24 39 16 60 -10 27 -26 16 -26
-19z"
    />
    <path
      d="M3641 3005 c1 -36 5 -65 10 -65 5 0 9 29 9 65 0 36 -4 65 -10 65 -5
0 -9 -29 -9 -65z"
    />
    <path d="M540 2992 c0 -40 4 -72 9 -72 8 0 3 130 -5 139 -2 2 -4 -28 -4 -67z" />
    <path
      d="M1230 3050 c0 -5 7 -10 15 -10 8 0 15 5 15 10 0 6 -7 10 -15 10 -8 0
-15 -4 -15 -10z"
    />
    <path
      d="M1280 3050 c0 -5 7 -10 16 -10 8 0 12 5 9 10 -3 6 -10 10 -16 10 -5
0 -9 -4 -9 -10z"
    />
    <path d="M1335 3051 c-3 -5 -1 -12 5 -16 5 -3 10 1 10 9 0 18 -6 21 -15 7z" />
    <path
      d="M3360 3040 c0 -5 7 -10 15 -10 8 0 15 5 15 10 0 6 -7 10 -15 10 -8 0
-15 -4 -15 -10z"
    />
    <path
      d="M1107 3023 c-13 -12 -7 -23 13 -23 11 0 20 7 20 15 0 15 -21 21 -33
8z"
    />
    <path d="M1230 2994 c0 -9 5 -14 12 -12 18 6 21 28 4 28 -9 0 -16 -7 -16 -16z" />
    <path
      d="M1280 2998 c0 -4 7 -8 15 -8 8 0 15 4 15 8 0 5 -7 9 -15 9 -8 0 -15
-4 -15 -9z"
    />
    <path
      d="M1330 3000 c0 -5 7 -10 15 -10 8 0 15 5 15 10 0 6 -7 10 -15 10 -8 0
-15 -4 -15 -10z"
    />
    <path
      d="M1380 3000 c0 -5 5 -10 10 -10 6 0 10 5 10 10 0 6 -4 10 -10 10 -5 0
-10 -4 -10 -10z"
    />
    <path
      d="M980 2845 c0 -131 -2 -155 -15 -155 -21 0 -19 -16 3 -17 28 -2 44 6
37 18 -4 5 -6 77 -6 160 1 98 -2 149 -9 149 -6 0 -10 -54 -10 -155z"
    />
    <path
      d="M3365 2990 c-3 -5 1 -10 9 -10 9 0 16 5 16 10 0 6 -4 10 -9 10 -6 0
-13 -4 -16 -10z"
    />
    <path
      d="M1110 2965 c0 -8 7 -15 15 -15 8 0 15 7 15 15 0 8 -7 15 -15 15 -8 0
-15 -7 -15 -15z"
    />
    <path
      d="M3722 2895 c2 -47 0 -85 -4 -85 -4 0 -5 -12 -4 -27 2 -16 5 -82 6
-148 2 -91 4 -112 11 -85 12 51 10 430 -2 430 -7 0 -9 -32 -7 -85z"
    />
    <path
      d="M1380 2960 c0 -5 5 -10 10 -10 6 0 10 5 10 10 0 6 -4 10 -10 10 -5 0
-10 -4 -10 -10z"
    />
    <path
      d="M1230 2950 c0 -5 5 -10 10 -10 6 0 10 5 10 10 0 6 -4 10 -10 10 -5 0
-10 -4 -10 -10z"
    />
    <path
      d="M1280 2950 c0 -5 4 -10 9 -10 6 0 13 5 16 10 3 6 -1 10 -9 10 -9 0
-16 -4 -16 -10z"
    />
    <path
      d="M1336 2945 c4 -8 8 -15 10 -15 2 0 4 7 4 15 0 8 -4 15 -10 15 -5 0
-7 -7 -4 -15z"
    />
    <path
      d="M3500 2920 c0 -22 5 -40 10 -40 6 0 10 18 10 40 0 22 -4 40 -10 40
-5 0 -10 -18 -10 -40z"
    />
    <path
      d="M700 2920 c0 -16 5 -30 10 -30 6 0 10 6 10 14 0 8 3 21 6 30 4 11 1
16 -10 16 -11 0 -16 -9 -16 -30z"
    />
    <path
      d="M1512 2929 c2 -6 8 -10 13 -10 5 0 11 4 13 10 2 6 -4 11 -13 11 -9 0
-15 -5 -13 -11z"
    />
    <path
      d="M2922 2913 c3 -31 25 -37 42 -11 8 13 7 21 -2 30 -11 11 -12 10 -7
-4 4 -11 2 -18 -4 -18 -6 0 -11 7 -11 15 0 8 -5 15 -11 15 -6 0 -9 -12 -7 -27z"
    />
    <path
      d="M3040 2880 c0 -33 -4 -60 -10 -60 -5 0 -10 -7 -10 -15 0 -11 11 -15
40 -15 29 0 40 -4 40 -15 0 -11 -11 -15 -41 -15 -26 0 -38 -4 -33 -11 3 -6 19
-9 35 -7 l29 5 0 -68 c0 -37 5 -71 10 -74 6 -4 10 31 10 99 l0 104 -29 7 c-28
6 -28 8 -27 66 0 32 -2 59 -6 59 -5 0 -8 -27 -8 -60z"
    />
    <path
      d="M3370 2929 c0 -5 5 -7 10 -4 6 3 10 8 10 11 0 2 -4 4 -10 4 -5 0 -10
-5 -10 -11z"
    />
    <path d="M3572 2915 c0 -16 2 -22 5 -12 2 9 2 23 0 30 -3 6 -5 -1 -5 -18z" />
    <path
      d="M1110 2915 c0 -8 7 -15 15 -15 8 0 15 7 15 15 0 8 -7 15 -15 15 -8 0
-15 -7 -15 -15z"
    />
    <path
      d="M1183 2905 c0 -8 4 -15 9 -15 4 0 8 7 8 15 0 8 -4 15 -8 15 -5 0 -9
-7 -9 -15z"
    />
    <path d="M1391 2904 c0 -11 3 -14 6 -6 3 7 2 16 -1 19 -3 4 -6 -2 -5 -13z" />
    <path
      d="M3641 2903 c1 -10 5 -31 9 -48 7 -27 8 -25 9 18 0 26 -3 47 -9 47 -5
0 -9 -8 -9 -17z"
    />
    <path d="M1238 2903 c7 -3 16 -2 19 1 4 3 -2 6 -13 5 -11 0 -14 -3 -6 -6z" />
    <path d="M1338 2903 c7 -3 16 -2 19 1 4 3 -2 6 -13 5 -11 0 -14 -3 -6 -6z" />
    <path
      d="M3370 2785 c0 -75 4 -114 10 -110 6 3 10 52 10 110 0 58 -4 107 -10
110 -6 4 -10 -35 -10 -110z"
    />
    <path
      d="M1111 2755 c1 -98 4 -125 14 -125 11 0 14 26 13 125 0 101 -3 125
-15 125 -11 0 -13 -23 -12 -125z"
    />
    <path d="M1391 2864 c0 -11 3 -14 6 -6 3 7 2 16 -1 19 -3 4 -6 -2 -5 -13z" />
    <path
      d="M1180 2620 c0 -161 4 -250 10 -250 7 0 10 88 9 250 -1 138 -5 250
-10 250 -5 0 -9 -112 -9 -250z"
    />
    <path
      d="M1235 2860 c-3 -5 1 -10 10 -10 9 0 13 5 10 10 -3 6 -8 10 -10 10 -2
0 -7 -4 -10 -10z"
    />
    <path
      d="M1330 2860 c0 -5 7 -10 16 -10 8 0 12 5 9 10 -3 6 -10 10 -16 10 -5
0 -9 -4 -9 -10z"
    />
    <path
      d="M3864 2859 c-10 -17 13 -36 27 -22 12 12 4 33 -11 33 -5 0 -12 -5
-16 -11z"
    />
    <path
      d="M1280 2849 c0 -5 5 -7 10 -4 6 3 10 8 10 11 0 2 -4 4 -10 4 -5 0 -10
-5 -10 -11z"
    />
    <path
      d="M3490 2845 c0 -8 9 -15 20 -15 11 0 20 7 20 15 0 8 -9 15 -20 15 -11
0 -20 -7 -20 -15z"
    />
    <path d="M3997 2834 c-8 -8 1 -24 14 -24 5 0 9 7 9 15 0 15 -12 20 -23 9z" />
    <path
      d="M1230 2810 c0 -5 7 -10 15 -10 8 0 15 5 15 10 0 6 -7 10 -15 10 -8 0
-15 -4 -15 -10z"
    />
    <path
      d="M1280 2810 c0 -5 7 -10 15 -10 8 0 15 5 15 10 0 6 -7 10 -15 10 -8 0
-15 -4 -15 -10z"
    />
    <path
      d="M1330 2810 c0 -5 4 -10 9 -10 6 0 13 5 16 10 3 6 -1 10 -9 10 -9 0
-16 -4 -16 -10z"
    />
    <path
      d="M1380 2811 c0 -6 5 -13 10 -16 6 -3 10 1 10 9 0 9 -4 16 -10 16 -5 0
-10 -4 -10 -9z"
    />
    <path d="M3490 2795 c0 -8 6 -15 14 -15 22 0 28 17 10 24 -22 9 -24 8 -24 -9z" />
    <path
      d="M660 2785 c0 -11 12 -15 44 -15 30 0 46 5 50 15 4 12 -4 15 -44 15
-38 0 -50 -4 -50 -15z"
    />
    <path
      d="M425 2770 c3 -5 10 -10 16 -10 5 0 9 5 9 10 0 6 -7 10 -16 10 -8 0
-12 -4 -9 -10z"
    />
    <path d="M1386 2771 c-4 -7 -5 -15 -2 -18 9 -9 19 4 14 18 -4 11 -6 11 -12 0z" />
    <path
      d="M1230 2760 c0 -5 7 -10 15 -10 8 0 15 5 15 10 0 6 -7 10 -15 10 -8 0
-15 -4 -15 -10z"
    />
    <path
      d="M1280 2760 c0 -5 7 -10 15 -10 8 0 15 5 15 10 0 6 -7 10 -15 10 -8 0
-15 -4 -15 -10z"
    />
    <path
      d="M3490 2740 c0 -5 9 -10 20 -10 11 0 20 5 20 10 0 6 -9 10 -20 10 -11
0 -20 -4 -20 -10z"
    />
    <path
      d="M648 2733 c-41 -11 -13 -23 52 -23 56 0 70 3 70 15 0 12 -12 15 -52
14 -29 -1 -61 -3 -70 -6z"
    />
    <path
      d="M3567 2734 c-4 -4 -7 -86 -6 -182 0 -110 4 -171 10 -165 5 5 8 83 7
182 -2 95 -6 169 -11 165z"
    />
    <path d="M1236 2721 c-4 -7 -5 -15 -2 -18 9 -9 19 4 14 18 -4 11 -6 11 -12 0z" />
    <path
      d="M1280 2715 c0 -8 5 -15 10 -15 6 0 10 7 10 15 0 8 -4 15 -10 15 -5 0
-10 -7 -10 -15z"
    />
    <path
      d="M1330 2721 c0 -6 5 -13 10 -16 6 -3 10 1 10 9 0 9 -4 16 -10 16 -5 0
-10 -4 -10 -9z"
    />
    <path
      d="M3660 2720 c0 -5 5 -10 10 -10 6 0 10 5 10 10 0 6 -4 10 -10 10 -5 0
-10 -4 -10 -10z"
    />
    <path d="M420 2701 c0 -11 26 -22 34 -14 3 3 3 10 0 14 -7 12 -34 11 -34 0z" />
    <path
      d="M3490 2700 c0 -5 6 -10 14 -10 8 0 18 5 21 10 3 6 -3 10 -14 10 -12
0 -21 -4 -21 -10z"
    />
    <path
      d="M740 2675 c0 -8 5 -15 10 -15 6 0 10 7 10 15 0 8 -4 15 -10 15 -5 0
-10 -7 -10 -15z"
    />
    <path d="M635 2671 c-3 -5 -1 -12 5 -16 5 -3 10 1 10 9 0 18 -6 21 -15 7z" />
    <path
      d="M680 2665 c0 -9 5 -15 11 -13 6 2 11 8 11 13 0 5 -5 11 -11 13 -6 2
-11 -4 -11 -13z"
    />
    <path
      d="M1230 2670 c0 -5 7 -10 16 -10 8 0 12 5 9 10 -3 6 -10 10 -16 10 -5
0 -9 -4 -9 -10z"
    />
    <path
      d="M1280 2669 c0 -5 5 -7 10 -4 6 3 10 8 10 11 0 2 -4 4 -10 4 -5 0 -10
-5 -10 -11z"
    />
    <path
      d="M3610 2670 c0 -5 7 -10 16 -10 8 0 12 5 9 10 -3 6 -10 10 -16 10 -5
0 -9 -4 -9 -10z"
    />
    <path
      d="M3660 2670 c0 -5 7 -10 16 -10 8 0 12 5 9 10 -3 6 -10 10 -16 10 -5
0 -9 -4 -9 -10z"
    />
    <path
      d="M980 2635 c0 -8 5 -15 10 -15 6 0 10 7 10 15 0 8 -4 15 -10 15 -5 0
-10 -7 -10 -15z"
    />
    <path d="M3372 2630 c0 -14 2 -19 5 -12 2 6 2 18 0 25 -3 6 -5 1 -5 -13z" />
    <path d="M425 2630 c-3 -6 1 -13 10 -16 19 -8 30 0 20 15 -8 14 -22 14 -30 1z" />
    <path
      d="M630 2621 c0 -6 5 -13 10 -16 6 -3 10 1 10 9 0 9 -4 16 -10 16 -5 0
-10 -4 -10 -9z"
    />
    <path d="M680 2614 c0 -17 22 -14 28 4 2 7 -3 12 -12 12 -9 0 -16 -7 -16 -16z" />
    <path
      d="M740 2406 c0 -139 4 -227 10 -231 7 -4 10 73 10 224 0 147 -4 231
-10 231 -6 0 -10 -81 -10 -224z"
    />
    <path
      d="M1230 2620 c0 -5 5 -10 10 -10 6 0 10 5 10 10 0 6 -4 10 -10 10 -5 0
-10 -4 -10 -10z"
    />
    <path
      d="M3610 2615 c0 -8 5 -15 10 -15 6 0 10 7 10 15 0 8 -4 15 -10 15 -5 0
-10 -7 -10 -15z"
    />
    <path
      d="M3660 2620 c0 -5 7 -10 16 -10 8 0 12 5 9 10 -3 6 -10 10 -16 10 -5
0 -9 -4 -9 -10z"
    />
    <path
      d="M1117 2613 c-2 -5 -5 -43 -6 -85 -2 -65 0 -78 13 -78 13 0 16 14 16
85 0 73 -9 104 -23 78z"
    />
    <path
      d="M3497 2583 c-2 -5 -2 -42 1 -83 3 -51 7 -69 13 -55 18 46 5 173 -14
138z"
    />
    <path d="M636 2571 c-4 -7 -5 -15 -2 -18 9 -9 19 4 14 18 -4 11 -6 11 -12 0z" />
    <path
      d="M686 2450 c0 -72 4 -133 7 -137 4 -3 7 48 7 115 0 66 3 127 6 136 4
10 1 16 -7 16 -11 0 -14 -27 -13 -130z"
    />
    <path d="M3610 2564 c0 -9 5 -14 12 -12 18 6 21 28 4 28 -9 0 -16 -7 -16 -16z" />
    <path
      d="M3660 2570 c0 -5 7 -10 15 -10 8 0 15 5 15 10 0 6 -7 10 -15 10 -8 0
-15 -4 -15 -10z"
    />
    <path
      d="M800 2560 c0 -5 7 -10 15 -10 8 0 15 5 15 10 0 6 -7 10 -15 10 -8 0
-15 -4 -15 -10z"
    />
    <path
      d="M854 2554 c3 -9 6 -135 6 -281 0 -147 3 -264 6 -260 5 4 7 291 4 545
0 6 -5 12 -11 12 -6 0 -8 -7 -5 -16z"
    />
    <path
      d="M1610 2560 c0 -5 7 -10 16 -10 8 0 12 5 9 10 -3 6 -10 10 -16 10 -5
0 -9 -4 -9 -10z"
    />
    <path d="M3366 2563 c-11 -11 -6 -23 9 -23 8 0 15 4 15 9 0 13 -16 22 -24 14z" />
    <path
      d="M3780 2451 c0 -50 5 -93 10 -96 6 -4 10 28 10 89 0 57 -4 96 -10 96
-6 0 -10 -36 -10 -89z"
    />
    <path d="M642 2510 c0 -14 2 -19 5 -12 2 6 2 18 0 25 -3 6 -5 1 -5 -13z" />
    <path d="M806 2523 c-11 -11 -6 -23 9 -23 8 0 15 4 15 9 0 13 -16 22 -24 14z" />
    <path
      d="M920 2294 c0 -154 3 -233 10 -229 6 4 10 93 10 236 0 146 -4 229 -10
229 -6 0 -10 -85 -10 -236z"
    />
    <path
      d="M3610 2520 c0 -5 7 -10 15 -10 8 0 15 5 15 10 0 6 -7 10 -15 10 -8 0
-15 -4 -15 -10z"
    />
    <path
      d="M3660 2520 c0 -5 7 -10 15 -10 8 0 15 5 15 10 0 6 -7 10 -15 10 -8 0
-15 -4 -15 -10z"
    />
    <path d="M978 2483 c7 -3 16 -2 19 1 4 3 -2 6 -13 5 -11 0 -14 -3 -6 -6z" />
    <path d="M800 2466 c0 -9 7 -16 16 -16 17 0 14 22 -4 28 -7 2 -12 -3 -12 -12z" />
    <path
      d="M1480 2370 c0 -60 4 -100 10 -100 6 0 10 40 10 100 0 60 -4 100 -10
100 -6 0 -10 -40 -10 -100z"
    />
    <path
      d="M3720 2366 c0 -52 4 -98 10 -101 6 -4 10 28 10 89 0 52 -4 98 -10
101 -6 4 -10 -28 -10 -89z"
    />
    <path
      d="M3360 2440 c0 -5 4 -10 9 -10 6 0 13 5 16 10 3 6 -1 10 -9 10 -9 0
-16 -4 -16 -10z"
    />
    <path d="M3674 2360 c0 -52 1 -74 3 -47 2 26 2 68 0 95 -2 26 -3 4 -3 -48z" />
    <path
      d="M985 2430 c3 -5 8 -10 11 -10 2 0 4 5 4 10 0 6 -5 10 -11 10 -5 0 -7
-4 -4 -10z"
    />
    <path
      d="M800 2415 c0 -8 7 -15 15 -15 8 0 15 7 15 15 0 8 -7 15 -15 15 -8 0
-15 -7 -15 -15z"
    />
    <path
      d="M1331 2265 c2 -80 7 -145 11 -145 4 0 8 65 8 145 0 97 -4 145 -11
145 -7 0 -10 -47 -8 -145z"
    />
    <path
      d="M3355 2400 c-3 -5 3 -10 14 -10 12 0 21 5 21 10 0 6 -6 10 -14 10 -8
0 -18 -4 -21 -10z"
    />
    <path d="M980 2357 c0 -38 3 -45 15 -40 18 6 14 58 -4 76 -8 8 -11 -3 -11 -36z" />
    <path
      d="M1117 2353 c7 -59 13 -68 13 -20 0 19 3 42 6 51 4 11 1 16 -10 16
-13 0 -15 -8 -9 -47z"
    />
    <path
      d="M3501 2331 c1 -34 5 -61 9 -61 12 0 11 108 0 115 -8 5 -10 -13 -9
-54z"
    />
    <path
      d="M800 2360 c0 -5 7 -10 15 -10 8 0 15 5 15 10 0 6 -7 10 -15 10 -8 0
-15 -4 -15 -10z"
    />
    <path
      d="M3365 2360 c-19 -8 -19 -9 3 -9 12 -1 22 4 22 9 0 6 -1 10 -2 9 -2 0
-12 -4 -23 -9z"
    />
    <path
      d="M3581 2356 c-13 -16 -19 -49 -20 -115 -1 -39 -3 -43 -22 -38 -42 11
-49 -1 -48 -79 1 -52 5 -74 15 -78 11 -4 14 7 15 47 1 29 1 55 0 59 0 4 8 12
19 18 19 10 20 7 22 -67 0 -43 0 -86 0 -96 -1 -10 2 -26 8 -35 7 -12 10 37 10
158 -1 96 -1 180 0 186 0 7 12 15 26 18 14 4 24 12 21 19 -6 18 -32 20 -46 3z"
    />
    <path d="M802 2308 c6 -18 28 -21 28 -4 0 9 -7 16 -16 16 -9 0 -14 -5 -12 -12z" />
    <path
      d="M1380 2311 c0 -6 5 -13 10 -16 6 -3 10 1 10 9 0 9 -4 16 -10 16 -5 0
-10 -4 -10 -9z"
    />
    <path d="M3358 2313 c6 -2 18 -2 25 0 6 3 1 5 -13 5 -14 0 -19 -2 -12 -5z" />
    <path
      d="M1280 2280 c0 -16 5 -30 10 -30 6 0 10 14 10 30 0 17 -4 30 -10 30
-5 0 -10 -13 -10 -30z"
    />
    <path
      d="M983 2215 c0 -42 5 -78 10 -82 6 -3 7 -1 3 5 -3 6 -2 14 4 17 8 5 8
11 1 19 -6 7 -8 16 -5 19 4 3 8 26 9 51 2 33 0 46 -10 46 -9 0 -12 -20 -12
-75z"
    />
    <path d="M1392 2260 c0 -14 2 -19 5 -12 2 6 2 18 0 25 -3 6 -5 1 -5 -13z" />
    <path
      d="M3360 2265 c0 -8 7 -15 15 -15 8 0 15 7 15 15 0 8 -7 15 -15 15 -8 0
-15 -7 -15 -15z"
    />
    <path d="M3624 2226 c0 -30 3 -53 8 -50 10 7 11 104 0 104 -4 0 -8 -25 -8 -54z" />
    <path
      d="M800 2255 c0 -8 7 -15 15 -15 8 0 15 7 15 15 0 8 -7 15 -15 15 -8 0
-15 -7 -15 -15z"
    />
    <path d="M3673 2200 c0 -36 2 -50 4 -32 2 17 2 47 0 65 -2 17 -4 3 -4 -33z" />
    <path d="M1382 2204 c-1 -14 2 -23 8 -19 12 7 14 45 2 45 -4 0 -9 -11 -10 -26z" />
    <path
      d="M3360 2215 c0 -8 7 -15 15 -15 8 0 15 7 15 15 0 8 -7 15 -15 15 -8 0
-15 -7 -15 -15z"
    />
    <path
      d="M800 2163 c0 -61 8 -103 19 -103 4 0 4 30 1 66 -3 36 -2 68 2 70 13
9 9 24 -7 24 -12 0 -15 -13 -15 -57z"
    />
    <path d="M1292 2200 c0 -14 2 -19 5 -12 2 6 2 18 0 25 -3 6 -5 1 -5 -13z" />
    <path
      d="M3360 2165 c0 -9 6 -12 15 -9 8 4 15 10 15 15 0 5 -7 9 -15 9 -8 0
-15 -7 -15 -15z"
    />
    <path d="M3627 2153 c-11 -10 -8 -43 3 -43 6 0 10 11 10 25 0 26 -2 29 -13 18z" />
    <path
      d="M4228 2038 c-1 -68 -2 -142 -3 -165 -1 -24 2 -43 7 -43 4 0 8 74 8
165 0 91 -2 165 -5 165 -3 0 -6 -55 -7 -122z"
    />
    <path
      d="M1119 2128 c-1 -2 -3 -47 -3 -100 -1 -73 1 -95 10 -87 15 12 19 189
4 189 -5 0 -11 -1 -11 -2z"
    />
    <path d="M3672 2100 c0 -19 2 -27 5 -17 2 9 2 25 0 35 -3 9 -5 1 -5 -18z" />
    <path
      d="M3620 2074 c0 -14 4 -23 10 -19 6 3 10 15 10 26 0 10 -4 19 -10 19
-5 0 -10 -12 -10 -26z"
    />
    <path d="M3435 2081 c-3 -5 -1 -12 5 -16 5 -3 10 1 10 9 0 18 -6 21 -15 7z" />
    <path d="M3620 2009 c0 -17 4 -28 10 -24 11 7 9 55 -2 55 -4 0 -8 -14 -8 -31z" />
    <path
      d="M990 1935 c0 -37 4 -65 10 -65 6 0 10 28 10 65 0 37 -4 65 -10 65 -6
0 -10 -28 -10 -65z"
    />
    <path d="M4296 1922 c-7 -76 -5 -104 9 -90 3 3 5 43 3 89 l-3 84 -9 -83z" />
    <path d="M4168 1973 c-2 -5 0 -39 3 -78 l5 -70 2 78 c2 70 -1 90 -10 70z" />
    <path
      d="M249 1548 c-1 -73 -3 -172 -4 -220 0 -49 2 -88 7 -88 4 0 8 99 8 220
0 121 -2 220 -5 220 -3 0 -6 -60 -6 -132z"
    />
    <path d="M4234 1515 c0 -93 2 -133 3 -88 2 45 2 122 0 170 -1 48 -3 12 -3 -82z" />
    <path
      d="M4291 1515 c1 -91 5 -168 10 -171 5 -3 9 70 9 165 0 112 -4 171 -10
171 -7 0 -10 -56 -9 -165z"
    />
    <path
      d="M3786 1490 c0 -82 3 -153 7 -156 4 -4 7 63 7 149 0 87 -3 157 -8 157
-4 0 -7 -67 -6 -150z"
    />
    <path
      d="M3720 1440 c0 -120 4 -190 10 -190 6 0 10 70 10 190 0 120 -4 190
-10 190 -6 0 -10 -70 -10 -190z"
    />
    <path
      d="M3566 1579 c-8 -44 -6 -572 4 -639 4 -32 8 96 8 308 1 199 0 362 -2
362 -2 0 -6 -14 -10 -31z"
    />
    <path
      d="M3431 1268 c1 -183 -2 -341 -6 -350 -4 -9 -3 -23 1 -30 5 -7 8 -66 6
-131 -1 -91 1 -118 11 -114 9 3 11 33 8 114 -2 79 1 116 10 131 11 17 11 24 1
34 -9 9 -12 96 -12 345 0 203 -4 333 -9 333 -6 0 -10 -130 -10 -332z"
    />
    <path
      d="M3500 1581 c0 -11 5 -23 10 -26 6 -4 10 5 10 19 0 14 -4 26 -10 26
-5 0 -10 -9 -10 -19z"
    />
    <path
      d="M3360 1575 c0 -9 6 -12 15 -9 8 4 15 10 15 15 0 5 -7 9 -15 9 -8 0
-15 -7 -15 -15z"
    />
    <path
      d="M3616 1565 c4 -10 13 -13 26 -9 13 4 24 1 29 -7 6 -10 9 -8 9 9 0 19
-5 22 -35 22 -27 0 -33 -3 -29 -15z"
    />
    <path
      d="M3250 1333 c0 -136 4 -244 10 -253 6 -10 10 69 10 232 0 154 -4 249
-10 253 -7 4 -10 -76 -10 -232z"
    />
    <path
      d="M3301 1253 c2 -175 6 -329 10 -343 3 -14 7 129 8 318 1 238 -2 342
-9 342 -8 0 -10 -96 -9 -317z"
    />
    <path
      d="M3200 1303 c0 -146 4 -263 9 -263 12 0 12 492 0 511 -5 8 -9 -87 -9
-248z"
    />
    <path
      d="M3146 1445 c2 -61 0 -107 -6 -110 -6 -3 -10 -11 -10 -16 0 -6 3 -8 8
-5 4 2 7 -160 7 -361 0 -201 3 -370 7 -376 7 -10 12 460 10 833 -1 149 -1 140
-11 140 -5 0 -7 -47 -5 -105z"
    />
    <path
      d="M3360 1540 c0 -6 7 -10 15 -10 8 0 15 2 15 4 0 2 -7 6 -15 10 -8 3
-15 1 -15 -4z"
    />
    <path d="M3032 1420 l2 -115 6 105 c3 58 2 109 -2 115 -5 5 -7 -43 -6 -105z" />
    <path d="M3622 1505 c0 -16 2 -22 5 -12 2 9 2 23 0 30 -3 6 -5 -1 -5 -18z" />
    <path
      d="M479 1433 c0 -49 -2 -98 -3 -110 -2 -13 1 -23 6 -23 4 0 8 50 8 110
0 61 -2 110 -5 110 -3 0 -5 -39 -6 -87z"
    />
    <path
      d="M3358 1463 c-3 -52 3 -72 24 -73 4 0 4 10 1 23 -3 12 -6 39 -7 59 -2
60 -14 54 -18 -9z"
    />
    <path
      d="M3506 1505 c-3 -9 -6 -38 -6 -64 0 -26 -5 -52 -12 -59 -9 -9 -9 -15
0 -24 7 -7 12 -21 12 -32 1 -21 1 -21 13 -1 7 12 10 52 8 105 -3 90 -5 101
-15 75z"
    />
    <path
      d="M2920 1319 c0 -124 3 -188 10 -184 6 4 10 78 10 191 0 116 -4 184
-10 184 -6 0 -10 -70 -10 -191z"
    />
    <path d="M2970 1465 c0 -25 4 -45 9 -45 5 0 8 20 7 45 -1 59 -16 59 -16 0z" />
    <path
      d="M3080 1468 c0 -51 16 -66 23 -22 6 39 3 54 -14 54 -5 0 -9 -15 -9
-32z"
    />
    <path
      d="M2804 1478 c-5 -7 -7 -125 -4 -263 l6 -250 3 175 c2 96 5 184 6 195
1 11 3 35 4 53 1 25 5 32 21 32 11 0 21 -1 22 -2 1 -2 5 -140 8 -308 l6 -305
2 343 2 342 -34 0 c-18 0 -37 -6 -42 -12z"
    />
    <path
      d="M2668 1428 c-3 -39 -6 -43 -30 -46 l-28 -3 0 -277 c0 -177 3 -273 10
-266 5 5 10 76 11 157 l1 147 44 0 c24 0 44 4 44 10 0 6 -19 7 -45 4 l-45 -5
0 86 0 85 52 0 c63 0 59 10 -6 12 -60 1 -66 27 -6 30 22 1 48 2 57 2 17 1 18
-21 21 -293 1 -162 5 -297 7 -300 3 -2 5 133 5 301 l0 306 -25 6 c-24 6 -29
18 -25 64 1 16 -4 22 -19 22 -16 0 -20 -8 -23 -42z"
    />
    <path d="M34 1315 c0 -71 1 -99 3 -62 2 37 2 96 0 130 -2 34 -3 4 -3 -68z" />
    <path
      d="M2530 1405 c0 -10 7 -15 18 -13 21 4 19 22 -2 26 -10 2 -16 -3 -16
-13z"
    />
    <path
      d="M2975 1400 c3 -5 8 -10 11 -10 2 0 4 5 4 10 0 6 -5 10 -11 10 -5 0
-7 -4 -4 -10z"
    />
    <path
      d="M2978 1258 c5 -167 10 -172 11 -10 1 72 -3 132 -7 132 -4 0 -6 -55
-4 -122z"
    />
    <path
      d="M3618 1213 c-3 -158 1 -191 24 -177 10 7 11 54 1 54 -5 0 -6 65 -5
145 3 91 0 145 -6 145 -6 0 -11 -66 -14 -167z"
    />
    <path
      d="M3350 1350 c0 -5 9 -10 19 -10 11 0 23 5 26 10 4 6 -5 10 -19 10 -14
0 -26 -4 -26 -10z"
    />
    <path
      d="M3665 1235 c0 -69 3 -125 8 -125 4 0 7 56 7 125 0 69 -3 125 -7 125
-5 0 -8 -56 -8 -125z"
    />
    <path
      d="M2530 1335 c0 -8 5 -15 10 -15 6 0 10 7 10 15 0 8 -4 15 -10 15 -5 0
-10 -7 -10 -15z"
    />
    <path d="M422 1310 c0 -19 2 -27 5 -17 2 9 2 25 0 35 -3 9 -5 1 -5 -18z" />
    <path
      d="M1825 1075 c0 -159 4 -244 10 -242 6 2 10 11 9 20 0 10 -1 118 -2
242 -1 124 -5 225 -9 225 -5 0 -8 -110 -8 -245z"
    />
    <path
      d="M1890 1280 c0 -22 4 -40 9 -40 4 0 8 18 8 40 0 22 -4 40 -8 40 -5 0
-9 -18 -9 -40z"
    />
    <path
      d="M3358 1315 c-3 -3 -3 -17 0 -30 6 -36 32 -32 32 5 0 27 -17 40 -32
25z"
    />
    <path
      d="M1739 1286 c-13 -6 -25 -20 -27 -30 -3 -15 -1 -16 16 -7 27 15 32 14
32 -5 0 -20 16 -10 22 14 8 28 -15 43 -43 28z"
    />
    <path d="M2532 1256 c2 -24 6 -42 11 -39 11 7 8 83 -3 83 -6 0 -10 -18 -8 -44z" />
    <path d="M2645 1280 c-4 -6 11 -10 40 -10 25 0 44 4 41 8 -7 12 -74 14 -81 2z" />
    <path
      d="M1580 1148 c0 -72 3 -129 6 -126 11 12 15 258 4 258 -6 0 -10 -47
-10 -132z"
    />
    <path
      d="M3046 1254 c-20 -20 -20 -27 3 -55 l18 -23 17 33 c14 25 15 36 5 47
-15 18 -24 18 -43 -2z"
    />
    <path
      d="M1480 1166 c0 -51 4 -86 10 -86 6 0 10 33 10 79 0 44 -4 83 -10 86
-6 4 -10 -25 -10 -79z"
    />
    <path
      d="M1620 1115 c0 -84 4 -135 10 -135 6 0 10 50 9 135 0 76 -5 135 -10
135 -5 0 -9 -59 -9 -135z"
    />
    <path
      d="M415 1230 c3 -5 8 -10 11 -10 2 0 4 5 4 10 0 6 -5 10 -11 10 -5 0 -7
-4 -4 -10z"
    />
    <path
      d="M1430 1209 c0 -17 4 -28 10 -24 6 3 10 17 10 31 0 13 -4 24 -10 24
-5 0 -10 -14 -10 -31z"
    />
    <path d="M1544 1150 c0 -52 1 -74 3 -47 2 26 2 68 0 95 -2 26 -3 4 -3 -48z" />
    <path
      d="M2650 1230 c0 -13 50 -13 70 0 11 7 4 10 -27 10 -24 0 -43 -4 -43
-10z"
    />
    <path
      d="M3340 1229 c0 -20 21 -49 35 -49 19 0 27 16 20 40 -7 21 -55 29 -55
9z"
    />
    <path
      d="M1330 1171 c0 -33 5 -63 10 -66 6 -4 10 18 10 59 0 37 -4 66 -10 66
-6 0 -10 -26 -10 -59z"
    />
    <path d="M1387 1223 c-8 -14 -7 -133 0 -133 5 0 9 32 9 70 1 68 0 78 -9 63z" />
    <path
      d="M3862 1217 c-7 -8 -10 -16 -7 -19 3 -3 6 -21 7 -41 1 -21 5 -34 11
-30 6 4 6 -1 0 -12 -15 -26 -4 -65 19 -65 20 0 31 -8 76 -51 15 -14 43 -35 62
-48 33 -21 33 -21 11 -1 -22 19 -23 24 -12 43 13 21 13 21 -5 5 -18 -16 -21
-15 -61 23 -24 22 -43 48 -43 57 0 10 -6 24 -12 31 -11 10 -9 11 7 6 19 -6 19
-6 2 8 -17 14 -14 15 30 20 26 3 70 6 97 7 47 0 48 -1 44 -25 -4 -17 0 -29 11
-34 13 -8 10 -14 -19 -41 -22 -20 -27 -27 -13 -21 27 13 36 14 28 2 -3 -5 -1
-12 4 -16 6 -3 8 3 6 15 -4 22 20 29 27 8 3 -7 7 -6 11 5 3 9 2 17 -3 17 -6 0
-10 8 -10 18 0 14 2 15 10 2 8 -12 10 -11 8 5 -3 45 2 55 30 55 l27 1 -28 12
c-33 14 -32 12 -18 50 10 27 10 27 -35 27 l-45 0 7 -35 6 -35 -86 0 c-84 0
-113 13 -60 26 16 4 22 9 14 14 -6 4 -10 11 -8 16 5 15 -78 16 -90 1z m45 -39
c-3 -8 -6 -5 -6 6 -1 11 2 17 5 13 3 -3 4 -12 1 -19z"
    />
    <path
      d="M1281 1170 c1 -27 6 -50 10 -50 5 0 9 23 9 50 0 28 -4 50 -10 50 -5
0 -9 -22 -9 -50z"
    />
    <path
      d="M1892 1170 c-1 -27 3 -50 9 -50 5 0 9 23 9 50 0 28 -4 50 -9 50 -5 0
-9 -22 -9 -50z"
    />
    <path d="M3720 1195 c0 -14 4 -25 9 -25 5 0 8 11 7 25 -1 33 -16 33 -16 0z" />
    <path d="M4328 1213 c7 -3 16 -2 19 1 4 3 -2 6 -13 5 -11 0 -14 -3 -6 -6z" />
    <path d="M4378 1213 c7 -3 16 -2 19 1 4 3 -2 6 -13 5 -11 0 -14 -3 -6 -6z" />
    <path
      d="M272 1200 c-18 -4 -36 -10 -39 -14 -12 -12 52 -5 82 9 35 15 13 18
-43 5z"
    />
    <path
      d="M1233 1124 c6 -102 17 -106 17 -6 0 52 -4 82 -11 82 -7 0 -9 -26 -6
-76z"
    />
    <path
      d="M2530 1190 c0 -5 5 -10 10 -10 6 0 10 5 10 10 0 6 -4 10 -10 10 -5 0
-10 -4 -10 -10z"
    />
    <path d="M2645 1190 c7 -11 75 -9 75 3 0 4 -18 7 -41 7 -24 0 -38 -4 -34 -10z" />
    <path
      d="M1180 1060 c0 -80 4 -130 10 -130 6 0 10 50 10 130 0 80 -4 130 -10
130 -6 0 -10 -50 -10 -130z"
    />
    <path
      d="M160 1170 c0 -5 7 -10 15 -10 8 0 15 5 15 10 0 6 -7 10 -15 10 -8 0
-15 -4 -15 -10z"
    />
    <path
      d="M1120 1170 c0 -5 5 -10 10 -10 6 0 10 5 10 10 0 6 -4 10 -10 10 -5 0
-10 -4 -10 -10z"
    />
    <path
      d="M1679 1048 c0 -73 -3 -159 -5 -190 -3 -32 0 -66 5 -75 7 -13 10 43
11 190 0 114 -2 207 -5 207 -3 0 -5 -60 -6 -132z"
    />
    <path
      d="M1052 1073 c0 -54 4 -107 9 -118 4 -12 8 26 8 92 0 62 -4 115 -9 118
-5 3 -9 -37 -8 -92z"
    />
    <path
      d="M988 1068 c-5 -107 1 -200 13 -193 10 7 8 274 -2 280 -3 3 -9 -37
-11 -87z"
    />
    <path
      d="M1434 955 c0 -116 2 -161 3 -102 2 59 2 154 0 210 -1 56 -3 8 -3
-108z"
    />
    <path
      d="M3370 1146 c0 -9 5 -16 10 -16 6 0 10 4 10 9 0 6 -4 13 -10 16 -5 3
-10 -1 -10 -9z"
    />
    <path d="M1120 1123 c0 -18 5 -33 10 -33 13 0 13 30 0 50 -7 11 -10 7 -10 -17z" />
    <path
      d="M3720 1130 c0 -11 5 -20 10 -20 6 0 10 9 10 20 0 11 -4 20 -10 20 -5
0 -10 -9 -10 -20z"
    />
    <path d="M860 1020 c0 -62 2 -111 5 -108 7 7 8 209 1 216 -3 3 -6 -46 -6 -108z" />
    <path d="M3048 1113 c6 -2 18 -2 25 0 6 3 1 5 -13 5 -14 0 -19 -2 -12 -5z" />
    <path d="M2668 1103 c12 -2 30 -2 40 0 9 3 -1 5 -23 4 -22 0 -30 -2 -17 -4z" />
    <path
      d="M2921 1096 c-13 -16 -4 -46 14 -46 7 0 18 7 25 15 10 12 10 18 0 30
-15 19 -24 19 -39 1z"
    />
    <path d="M743 1060 c0 -25 2 -35 4 -22 2 12 2 32 0 45 -2 12 -4 2 -4 -23z" />
    <path
      d="M802 1091 c-20 -12 -10 -46 13 -46 14 0 20 7 20 24 0 27 -13 35 -33
22z"
    />
    <path
      d="M910 1075 c0 -16 6 -25 15 -25 9 0 15 9 15 25 0 16 -6 25 -15 25 -9
0 -15 -9 -15 -25z"
    />
    <path
      d="M1890 1036 c0 -37 4 -66 10 -66 6 0 10 26 10 59 0 33 -4 63 -10 66
-6 4 -10 -18 -10 -59z"
    />
    <path d="M3978 1093 c12 -2 30 -2 40 0 9 3 -1 5 -23 4 -22 0 -30 -2 -17 -4z" />
    <path d="M1338 1065 c-3 -14 -1 -28 3 -31 5 -3 9 9 9 25 0 38 -6 40 -12 6z" />
    <path d="M3672 1070 c0 -14 2 -19 5 -12 2 6 2 18 0 25 -3 6 -5 1 -5 -13z" />
    <path
      d="M1285 1070 c3 -5 8 -10 11 -10 2 0 4 5 4 10 0 6 -5 10 -11 10 -5 0
-7 -4 -4 -10z"
    />
    <path d="M3067 1066 c-6 -16 16 -40 26 -29 4 3 7 15 7 25 0 21 -25 24 -33 4z" />
    <path d="M2654 1062 c5 -8 66 -4 66 4 0 2 -16 4 -36 4 -19 0 -33 -4 -30 -8z" />
    <path d="M1381 1044 c0 -11 3 -14 6 -6 3 7 2 16 -1 19 -3 4 -6 -2 -5 -13z" />
    <path
      d="M3250 1001 c0 -34 4 -61 10 -61 12 0 11 108 -1 116 -5 3 -9 -22 -9
-55z"
    />
    <path
      d="M920 1025 c0 -8 4 -15 8 -15 5 0 9 7 9 15 0 8 -4 15 -9 15 -4 0 -8
-7 -8 -15z"
    />
    <path d="M1482 1020 c0 -14 2 -19 5 -12 2 6 2 18 0 25 -3 6 -5 1 -5 -13z" />
    <path
      d="M1534 1009 c3 -17 7 -50 7 -73 1 -32 3 -27 9 24 8 68 6 80 -12 80 -6
0 -8 -12 -4 -31z"
    />
    <path
      d="M3500 973 c0 -38 -3 -92 -6 -120 -6 -50 -6 -53 16 -53 21 0 22 3 16
46 -3 26 -6 80 -6 120 0 43 -4 74 -10 74 -6 0 -10 -29 -10 -67z"
    />
    <path
      d="M3360 1005 c0 -17 5 -25 13 -22 6 2 12 12 12 22 0 10 -6 20 -12 23
-8 2 -13 -6 -13 -23z"
    />
    <path d="M3873 1015 c-3 -9 -3 -18 -1 -21 3 -3 8 4 11 16 6 23 -1 27 -10 5z" />
    <path
      d="M683 969 c-1 -23 3 -39 8 -37 6 2 10 7 10 11 -1 4 -1 21 -1 37 0 45
-15 36 -17 -11z"
    />
    <path d="M1121 984 c0 -11 3 -14 6 -6 3 7 2 16 -1 19 -3 4 -6 -2 -5 -13z" />
    <path
      d="M3725 988 c-4 -10 -4 -26 0 -35 8 -17 8 -17 12 0 3 9 3 25 0 35 -4
16 -4 16 -12 0z"
    />
    <path
      d="M1740 975 c-12 -14 -11 -18 1 -26 20 -12 34 -6 34 16 0 24 -19 30
-35 10z"
    />
    <path
      d="M170 941 c0 -11 5 -23 10 -26 6 -4 10 5 10 19 0 14 -4 26 -10 26 -5
0 -10 -9 -10 -19z"
    />
    <path d="M1591 944 c0 -11 3 -14 6 -6 3 7 2 16 -1 19 -3 4 -6 -2 -5 -13z" />
    <path
      d="M1890 935 c0 -8 5 -15 10 -15 6 0 10 7 10 15 0 8 -4 15 -10 15 -5 0
-10 -7 -10 -15z"
    />
    <path d="M2530 934 c0 -17 22 -14 28 4 2 7 -3 12 -12 12 -9 0 -16 -7 -16 -16z" />
    <path
      d="M3035 926 c-16 -12 -18 -18 -9 -33 14 -22 48 -24 52 -3 1 9 -3 23
-10 33 -12 16 -15 16 -33 3z"
    />
    <path d="M3252 854 c0 -42 4 -71 8 -63 10 19 10 128 0 134 -5 3 -8 -29 -8 -71z" />
    <path
      d="M100 910 c0 -5 5 -10 10 -10 6 0 10 5 10 10 0 6 -4 10 -10 10 -5 0
-10 -4 -10 -10z"
    />
    <path d="M1180 898 c0 -12 3 -18 7 -14 11 10 12 36 2 36 -5 0 -9 -10 -9 -22z" />
    <path
      d="M2805 900 c3 -5 8 -10 11 -10 2 0 4 5 4 10 0 6 -5 10 -11 10 -5 0 -7
-4 -4 -10z"
    />
    <path
      d="M2920 899 c0 -5 5 -7 10 -4 6 3 10 8 10 11 0 2 -4 4 -10 4 -5 0 -10
-5 -10 -11z"
    />
    <path d="M863 810 c0 -47 2 -66 4 -42 2 23 2 61 0 85 -2 23 -4 4 -4 -43z" />
    <path d="M1292 860 c0 -19 2 -27 5 -17 2 9 2 25 0 35 -3 9 -5 1 -5 -18z" />
    <path
      d="M1050 850 c0 -5 5 -10 10 -10 6 0 10 5 10 10 0 6 -4 10 -10 10 -5 0
-10 -4 -10 -10z"
    />
    <path d="M1584 846 c-8 -21 3 -49 16 -41 5 3 10 15 10 25 0 25 -18 36 -26 16z" />
    <path d="M3572 830 c0 -14 2 -19 5 -12 2 6 2 18 0 25 -3 6 -5 1 -5 -13z" />
    <path
      d="M2800 815 c0 -8 5 -15 10 -15 6 0 10 7 10 15 0 8 -4 15 -10 15 -5 0
-10 -7 -10 -15z"
    />
    <path d="M1291 804 c0 -11 3 -14 6 -6 3 7 2 16 -1 19 -3 4 -6 -2 -5 -13z" />
    <path
      d="M1480 805 c0 -8 2 -15 4 -15 2 0 6 7 10 15 3 8 1 15 -4 15 -6 0 -10
-7 -10 -15z"
    />
    <path d="M811 794 c0 -11 3 -14 6 -6 3 7 2 16 -1 19 -3 4 -6 -2 -5 -13z" />
    <path d="M984 796 c-7 -19 3 -36 22 -36 10 0 14 8 12 22 -4 26 -26 36 -34 14z" />
    <path
      d="M3032 794 c-11 -12 -11 -18 -1 -30 20 -24 54 -14 54 16 0 30 -32 38
-53 14z m38 -14 c0 -5 -4 -10 -10 -10 -5 0 -10 5 -10 10 0 6 5 10 10 10 6 0
10 -4 10 -10z"
    />
    <path
      d="M1170 786 c0 -10 9 -16 21 -16 24 0 21 23 -4 28 -10 2 -17 -3 -17
-12z"
    />
    <path
      d="M1750 789 c0 -5 5 -7 10 -4 6 3 10 8 10 11 0 2 -4 4 -10 4 -5 0 -10
-5 -10 -11z"
    />
    <path
      d="M2615 790 c3 -5 10 -10 16 -10 5 0 9 5 9 10 0 6 -7 10 -16 10 -8 0
-12 -4 -9 -10z"
    />
    <path
      d="M4230 759 c0 -5 5 -7 10 -4 6 3 10 8 10 11 0 2 -4 4 -10 4 -5 0 -10
-5 -10 -11z"
    />
    <path d="M1482 740 c0 -14 2 -19 5 -12 2 6 2 18 0 25 -3 6 -5 1 -5 -13z" />
    <path
      d="M800 739 c0 -5 5 -7 10 -4 6 3 10 8 10 11 0 2 -4 4 -10 4 -5 0 -10
-5 -10 -11z"
    />
    <path d="M1853 693 c9 -2 23 -2 30 0 6 3 -1 5 -18 5 -16 0 -22 -2 -12 -5z" />
    <path
      d="M1908 620 c-3 -39 -3 -40 29 -40 l32 0 1 -112 c1 -62 2 -119 2 -125
2 -15 28 -18 28 -3 0 6 10 2 22 -10 12 -11 27 -20 32 -19 6 0 5 3 -1 6 -7 2
-13 9 -13 14 0 6 6 7 13 3 9 -6 9 -5 0 8 -7 8 -10 18 -7 21 3 3 -1 16 -10 29
-9 12 -16 27 -16 33 1 5 8 -2 16 -17 19 -37 34 -36 30 2 -2 17 -1 30 3 30 3
-1 24 -25 46 -55 22 -30 52 -59 68 -66 34 -14 34 -23 0 -52 -79 -66 -93 -80
-92 -91 0 -7 2 -7 6 2 2 6 10 12 17 12 7 0 34 20 60 45 27 25 51 45 55 45 4 0
25 -18 46 -40 24 -25 43 -36 48 -31 8 8 -26 46 -65 72 -4 3 21 35 57 71 43 42
66 59 67 49 1 -9 2 -23 4 -31 1 -8 2 -28 3 -43 1 -16 5 -26 11 -22 6 3 8 16 6
28 -1 12 -1 16 1 9 3 -7 9 -9 15 -6 7 5 8 2 4 -5 -5 -7 0 -21 9 -31 9 -10 14
-24 9 -31 -5 -8 -3 -10 5 -5 7 5 10 14 7 22 -3 8 -2 14 2 14 4 0 8 15 8 33 3
122 6 137 31 137 13 0 22 4 18 10 -3 5 -12 7 -20 3 -11 -4 -15 2 -15 21 0 22
5 26 33 27 30 2 30 2 5 6 -20 3 -28 10 -28 24 0 17 8 19 63 21 34 0 47 3 30 5
-18 2 -33 10 -34 16 -1 7 -2 21 -3 32 -1 19 -9 20 -317 23 l-317 2 -4 -40z
m332 -13 c9 -3 5 -6 -11 -6 -16 -1 -26 4 -26 14 0 9 4 11 11 6 6 -4 18 -11 26
-14z m133 -51 c-3 -13 0 -27 6 -30 24 -15 -2 -36 -48 -38 -39 -1 -41 -2 -11
-5 62 -7 64 -10 28 -55 -18 -24 -35 -45 -39 -48 -3 -3 -17 -21 -32 -41 -15
-20 -34 -36 -43 -36 -9 0 -43 32 -77 71 -33 39 -67 75 -76 81 -13 7 -5 12 34
21 l50 12 -47 1 c-26 1 -50 6 -54 13 -4 7 -3 8 4 4 8 -5 12 5 12 33 l0 41 149
0 148 0 -4 -24z m-338 -206 c3 -5 1 -10 -4 -10 -6 0 -11 5 -11 10 0 6 2 10 4
10 3 0 8 -4 11 -10z m412 -35 c0 -8 -4 -12 -9 -9 -5 3 -6 10 -3 15 9 13 12 11
12 -6z"
    />
    <path d="M2097 549 c7 -7 15 -10 18 -7 3 3 -2 9 -12 12 -14 6 -15 5 -6 -5z" />
    <path d="M2163 543 c9 -2 25 -2 35 0 9 3 1 5 -18 5 -19 0 -27 -2 -17 -5z" />
    <path
      d="M2220 538 c0 -4 4 -8 9 -8 6 0 12 4 15 8 3 5 -1 9 -9 9 -8 0 -15 -4
-15 -9z"
    />
    <path d="M2273 543 c9 -2 25 -2 35 0 9 3 1 5 -18 5 -19 0 -27 -2 -17 -5z" />
    <path d="M2188 483 c6 -2 18 -2 25 0 6 3 1 5 -13 5 -14 0 -19 -2 -12 -5z" />
    <path d="M2243 483 c9 -2 23 -2 30 0 6 3 -1 5 -18 5 -16 0 -22 -2 -12 -5z" />
    <path d="M2158 433 c7 -3 16 -2 19 1 4 3 -2 6 -13 5 -11 0 -14 -3 -6 -6z" />
    <path d="M2203 433 c9 -2 25 -2 35 0 9 3 1 5 -18 5 -19 0 -27 -2 -17 -5z" />
    <path d="M2268 433 c6 -2 18 -2 25 0 6 3 1 5 -13 5 -14 0 -19 -2 -12 -5z" />
    <path d="M1828 643 c6 -2 18 -2 25 0 6 3 1 5 -13 5 -14 0 -19 -2 -12 -5z" />
    <path d="M3632 580 c0 -14 2 -19 5 -12 2 6 2 18 0 25 -3 6 -5 1 -5 -13z" />
    <path d="M1828 583 c7 -3 16 -2 19 1 4 3 -2 6 -13 5 -11 0 -14 -3 -6 -6z" />
    <path d="M228 563 c7 -3 16 -2 19 1 4 3 -2 6 -13 5 -11 0 -14 -3 -6 -6z" />
    <path
      d="M1905 540 l-40 -7 48 -2 c30 0 46 3 42 9 -3 6 -7 9 -8 9 -1 -1 -20
-5 -42 -9z"
    />
    <path
      d="M285 532 c-12 -12 -3 -20 17 -14 14 3 19 2 14 -6 -9 -15 41 -11 69 6
18 10 17 12 -15 13 -19 1 -45 3 -57 4 -12 1 -25 0 -28 -3z"
    />
    <path d="M1121 524 c0 -11 3 -14 6 -6 3 7 2 16 -1 19 -3 4 -6 -2 -5 -13z" />
    <path d="M1658 533 c7 -3 16 -2 19 1 4 3 -2 6 -13 5 -11 0 -14 -3 -6 -6z" />
    <path
      d="M514 514 c3 -9 6 -22 6 -30 0 -9 5 -12 10 -9 6 3 10 1 10 -5 0 -6 5
-8 10 -5 6 4 18 1 27 -7 15 -12 16 -10 9 15 -4 18 -3 26 5 25 6 -2 13 5 14 15
3 14 -5 17 -47 17 -42 0 -49 -3 -44 -16z"
    />
    <path d="M3008 523 c7 -3 16 -2 19 1 4 3 -2 6 -13 5 -11 0 -14 -3 -6 -6z" />
    <path d="M1908 483 c6 -2 18 -2 25 0 6 3 1 5 -13 5 -14 0 -19 -2 -12 -5z" />
    <path d="M2608 483 c7 -3 16 -2 19 1 4 3 -2 6 -13 5 -11 0 -14 -3 -6 -6z" />
    <path
      d="M3780 470 c0 -5 5 -10 10 -10 6 0 10 5 10 10 0 6 -4 10 -10 10 -5 0
-10 -4 -10 -10z"
    />
    <path
      d="M3620 440 c0 -5 5 -10 10 -10 6 0 10 5 10 10 0 6 -4 10 -10 10 -5 0
-10 -4 -10 -10z"
    />
    <path d="M1928 423 c6 -2 18 -2 25 0 6 3 1 5 -13 5 -14 0 -19 -2 -12 -5z" />
    <path
      d="M3540 360 c0 -5 5 -10 10 -10 6 0 10 5 10 10 0 6 -4 10 -10 10 -5 0
-10 -4 -10 -10z"
    />
    <path d="M2528 333 c7 -3 16 -2 19 1 4 3 -2 6 -13 5 -11 0 -14 -3 -6 -6z" />
    <path d="M2618 333 c7 -3 16 -2 19 1 4 3 -2 6 -13 5 -11 0 -14 -3 -6 -6z" />
    <path d="M1975 311 c-3 -5 -2 -12 3 -15 5 -3 9 1 9 9 0 17 -3 19 -12 6z" />
    <path d="M1798 273 c7 -3 16 -2 19 1 4 3 -2 6 -13 5 -11 0 -14 -3 -6 -6z" />
    <path d="M3058 273 c7 -3 16 -2 19 1 4 3 -2 6 -13 5 -11 0 -14 -3 -6 -6z" />
    <path
      d="M3420 260 c0 -5 5 -10 11 -10 5 0 7 5 4 10 -3 6 -8 10 -11 10 -2 0
-4 -4 -4 -10z"
    />
    <path
      d="M2905 220 c-3 -5 3 -10 14 -10 12 0 21 5 21 10 0 6 -6 10 -14 10 -8
0 -18 -4 -21 -10z"
    />
    <path
      d="M2980 220 c0 -5 5 -10 10 -10 6 0 10 5 10 10 0 6 -4 10 -10 10 -5 0
-10 -4 -10 -10z"
    />
    <path d="M3143 215 c-3 -9 -3 -18 0 -21 9 -9 27 6 27 22 0 19 -19 18 -27 -1z" />
    <path d="M1014 209 c-8 -14 11 -33 25 -25 6 4 11 14 11 22 0 16 -26 19 -36 3z" />
    <path d="M1505 201 c-3 -5 -1 -12 5 -16 12 -7 30 2 30 16 0 12 -27 12 -35 0z" />
    <path
      d="M2645 200 c-3 -5 -1 -10 4 -10 6 0 11 5 11 10 0 6 -2 10 -4 10 -3 0
-8 -4 -11 -10z"
    />
    <path
      d="M1740 150 c0 -5 5 -10 10 -10 6 0 10 5 10 10 0 6 -4 10 -10 10 -5 0
-10 -4 -10 -10z"
    />
  </g>
</svg>
